<?xml version="1.0" encoding="UTF-8"?>
<svg version="1.1" viewBox="0 0 1688 2048" width="1280" height="1280" xmlns="http://www.w3.org/2000/svg">
<path transform="translate(0)" d="m0 0h1688v2048h-1688zm728 14-23 2-25 5-26 8-25 11-23 11-21 11-11 8-10 9-7 9-5 10-3 10v15l3 10 6 9 9 10 8 10 5 9 1 3v10l-6 8-9 7-16 10-13 10-11 9v2h-2l-4 5-5 5-10 11-12 19-5 11-4 13-2 14v12l4 18 6 14 9 16 8 17 4 12 3 15 1 20-2 19-5 21-7 16-6 11-10 13-10 11-7 8-5 5v2l-4 2-9 11-8 11-7 19-3 16-1 9v54l-10-8-12-6-14-4-5-1h-15l-14 3-23 7-5 1 7-13 3-5v-2l-6 1-9 4-28 12-18 8v2l60 24h2l-2-5-10-17 9-1 25-8 13-2 14 1 13 4 13 7 10 9 9 13 11 19 8 11 14 14 14 11 16 13 11 11 7 11 4 11 1 7v12l-3 18-5 18-8 16-9 17-8 12-9 11-10 9-18 11-16 6-10 2-10 1-2-5-8-11-3-4h-2l-2-4-11-9-13-8-15-6-12-2-13 1-12 5-10 9-8 14-5 15-3 14-1 10v32l3 29-25 4-20 6-7 1-8-7-3-1-2-4-10-12-9-16-8-18-9-26-5-12-7-13-9-11-9-6-9-3h-15l-12 5-7 5-5 5-9 13-5 10-5 14-6 27-9 62-7 55-5 53-2 34v66l2 30 4 33 4 23 7 30 8 27 10 26 11 26 7 15 32 64 13 28 12 27 5 10 5 12 11 23 8 13 10 13 11 11 6 4 2 21 6 21 7 16 10 17 9 12h2v2h2l2 4h2v2l8 6 11 7 14 8 19 9 16 10 11 9 6 5 7 8 7 7 9 11 6 6h2v2l13 10 17 10 19 9 22 10 20 11 14 10 16 12 19 14 18 12 16 10 17 9 26 11 29 9 25 6 28 4h37l19-3 17-5 12-5 10-6 10-9 8-11 7-15 3-11 1-8v-27l-3-16-2-8 6-12 4-13 2-16-1-21-2-11v-8l4-20 4-25 1-11v-18l-2-20-4-16-7-14 4-1 12-12 8-15 2-6 7 6 8 7 16 8 11 2-4 6-5 5-8 9-9 17-5 18-1 8v90l2 15 5 12 2 3v88l2 12 5 13 7 9 8 8 15 10 10 5 13 5 25 5 13 1h18l24-2 29-5 38-9 33-11 27-12 16-9 12-8 14-11 13-12 7-7 13-17 10-16 30-11 27-12 16-8 24-13 19-12 12-9 12-10v-2l4-2 9-11 9-14 6-15 2-11 5-2 11-7 10-8 10-9 3-2v-2l4-2 36-36 7-8 11-13 13-18 11-19 6-12 6-15 3-11 2-13v-16l-3-18 9-4 11-9 12-14 10-15 10-18 9-20 6-20 2-16-2-17-5-10 2-4 9-13 8-16 5-16 2-16v-10l-2-12-3-8 10-6 6-7 6-12 8-32 4-21 2-20-1-23-4-16-4-10-9-16-8-12-10-16-7-14-4-15-3-17-1-4 7-17 4-11 5-23 1-6v-34l-5-22-9-20-10-14-11-12-13-10 2-12v-20l-4-24-5-18-7-16-8-14-11-13-10-10-9-6 7-11 4-10 1-6v-8l-5-16-4-7 2-12v-27l-4-17-4-10-7-13-14-19-5-7-6-15-4-16-6-43-4-17-6-15-8-14-8-10-9-10-4-4h-2v-2l-16-12-17-9-9-2 1-15-2-16-5-16-9-21-12-21-14-21-14-20-12-17-12-18-8-15-10-28-7-21-5-12-7-14-9-12-9-10-4-2v-2l-17-12-16-8-16-5-11-2h-20l-2-4-9-10-5-5-10-8-14-8-17-7-22-6-55-12-27-8-25-7-24-5-10-1h-24l-20 3-20 6-16 8-9 6-6 7-5 8-4 13-2 9-6-16-7-12-7-9-8-8-15-9-17-6-16-3-10-1z" fill="#FEFEFE"/>
<path transform="translate(926,26)" d="m0 0h13l17 2 23 5 41 12 24 6 34 7 23 6 20 8 15 9 12 11 9 10 6 10 2 6v9l-5 6-7 3-9 1-19-2-24-4h-15l-16 3-12 6-7 6-7 11-6 14-7-6v-2l-4-2-7-7-13-9-10-6-21-8-26-5 7-11 6-9-63 20 19 10 17 8 19 10 4 1-9-19v-2l14 2 15 4 13 5 16 10 10 8 14 14 13 17 12 18 8 13 8 16 5 13 4 16 2 15v27l-2 17-1 6-19 6-13 6-11 6-2-13v-11l-3 3-11 18-7 10-11 18-4 7 44-10 17-4h3v-2l-9-3-11-5 1-3 19-10 13-4 5-1h22l12 4 12 7 10 9v2l-19 3-3 1 18 10 16 9 22 13 1-1-8-28-10-34-5 11-4 10h-2l-5-6-11-8-14-7-15-3-10-1 2-16 1-22-2-24-5-21-7-18-11-20-12-18-10-14-1-5 7-16 7-10 8-6 11-4 13-2 16 1 30 5h13l10-2 6-3 3-1 2-4 3-9-1-10-2-5v-3h10l20 4 19 8 15 10 13 12 10 13 5 8 7 16 12 35 6 17 9 17 8 12 14 20 10 14 9 13 14 22 9 16 9 20 4 15 1 5v19l-4 13-6 10-5 6-3 1-10-19-6-11-22-33-13-19-13-20-9-15-12-23-11-26-11-21-8-10-7-8-13-9-15-6-11-2h-24l-11 1 6-21v-2l-18 13-19 14-16 12 62 9h3l-11-12-4-5 11-2h18l14 3 12 5 9 6v2l4 2 7 8 9 14 10 21 11 25 10 19 10 16 16 24 15 22 8 12 11 18 8 16 7 16 5 19 1 6v12l-3 12-6 9-8 7-13 6-15 4-24 2-18 1-16 4-16 8-13 10-10 11-9 14-8 16-4 10-4 16-2 18v21l-22-7 7 11 8 12 9 13 11 16 3 3 1-11 9-50v-4l-8 7-3 3h-2v2l-4 2-1-1v-25l4-20 6-16 8-15 8-11 9-10 10-8 15-8 10-3 8-1 24-1 22-3 18-6 11-7 8-9 5-10 2-8v-19l-4-18-2-6 1-5 5-5h2l2-4 8-14 1-2 6 1 16 8 14 10 13 12 8 10 7 10 7 14 5 16 4 24 4 29 5 19 8 16 14 19 7 11 5 11 4 15 1 6v20l-2 4-11-12-8-7-14-7-16-3-13-2-9-4-5-5-3-5-3-11-4-20-8-22-7-15 5-1h18l-5-5-34-24-14-10 1 11 9 50v4h2l2-6 8-14 4 5 5 11 5 13 5 21 4 16 5 9 6 5 9 4 25 4 12 4 13 10 9 10 7 10 7 15 1 4v11l-4 10-6 9-5 4-5 5-12 6-13 3v-2l-4-2-10-10-2-1v-2l-4-2-13-11-16-12-10-6-14-7-14-5-25-5-8-1-1-2 3-8 1-6v-16l-3-14-5-12-7-10-7-8-11-8 5-5 13-9 1-2h-35l-32-1 7 8 20 20 7 8 11 11 2 1-2-13v-9l5 2 8 7 7 10 5 10 4 17-1 16-5 12-1 1-23 3-24 6-16 8-15 8-12 8-9 7-9 9-4 8-1 4v9l3 8 11 14 8 10v2h2l11 18 3 9 2 12 1 21-2 24-1 7-2 1-12-9v-2l-6-3 3 12 11 52h2l11-18 15-23 8-13-10 3-9 3h-3l2-23v-28l-3-19-4-11-7-12-9-12-14-17-3-5v-10l6-10 10-9 10-7 17-10 16-8 17-5 16-3 9-1h17l14 2 20 5 16 7 9 5 13 9 16 13 10 8v2l4 2 14 14 6 11 2 8v9l-4 13-6 9-5 6h-2l-1 3-14 10-12 6 1-14 1-9-8 7-39 39 66 1-5-5-11-9-1-3 15-8 13-10 9-10 6-10 4-12v-17l-4-12-2-5 15-5 12-8 5 2 7 5v2l4 2 8 8 10 14 8 16 6 17 4 19 1 7v27l-5 16-7 9-7 6-13 4h-59l-15 4-13 7-7 5h-8l-7 1h-30l-21-5-13-7-10-9-6-9-5-12-1-5v-11l4-14 12-29 2-9 1-16-1-15 22 4-3-5-10-11-9-11-11-12-8-10-2-1-1 23-2 33v10l7-7 7-9 2 1 1 4v18l-3 13-12 28-3 12v18l4 13 8 13 5 5v2l4 2 11 7 13 5 14 3 12 1h27l-7 11-8 15-6 20-2 13v41l5 27v23l-4 10-6 7-10 6-37 13-52 20-24 8-24 6-14 2h-30l-20-4-17-3h-29l-17 3-17 6-12 7-8 7h-2l-2 4-7 9-4 11v17l4 15 8 20 4 12 2 14v8l-3 11-4 6-7 6-8 3-11 2-18-1-21-5-27-9-18-8-16-9-15-10-13-11-2-1v-2l-3-1 1-3 18-5 2-1-26-11-34-14 3 10 9 21 12 29 2 1 1-8 4-14 4 2 13 11 14 10 19 11 19 9 33 11 24 5h21l12-3 8-4 6-5 6-12 2-8v-19l-5-19-8-20-4-12-1-5v-10l4-11 6-8 7-7 11-7 13-6 17-4 8-1h19l15 2 23 5 10 1h19l23-3 25-6 26-9 36-14 33-12 15-5 13-7 7-7 4-7 3-12v-16l-6-40v-27l3-20 6-18 9-16 12-13 10-7 10-5 10-3 9-1h14l14 1h20l14-3 10-5 6-5 8-12 5 2 10 9 10 11 9 16 6 16 3 13 1 8v19l-3 20-7 25-5 12-4-2-5-4-10-5-8-2h-16l-14 3-11 5-3-1-6-21-9-19-1-5 20-4-14-9-18-11-22-13 2 10 5 21 5 18 3 11v3h2l1-5 5-12h2l1-2 3 3 7 14 6 18 4 21 3 32v32l-3 14-4 8-2 3h-2l-1 3-11 7-17 6-23 7-13 6-12 7-10 8-8 7-3 4h-5l-12-6-18-5-21-2-10 1-15 6-11 7h-2v2l-6 5h-2l-1 2-3-3-6-17-2 3-19 57 5-1 18-10 32-16 3-1v-2l-11-1-9-2-1-2 5-5 5-4 10-6 10-4 4-1h20l20 5 9 4 4 2 1 5-8 14-9 21-8 21-9 22-8 16-6 11-10 14-7 8-10 4-3 1h-24l-21-5-19-7-7-3-23-11-14-8-2-7-3-16-5-12-8-10-5-5-11-9-4-4 4-4 14-7-15-4-31-6-17-3 7 11 15 22 11 16v3l3 1 2-18 1-3 5 2 8 6 8 7 3 4v2h2l6 12 3 17v22l-3 16-8 16-7 8-7 5-12 4-34 7-26 8-24 10-6 3-5-1-7-8-9-6-11-5-9-2-38-4-15-4-17-6-24-9v-3h2l1-3 8-7 3-4-45 4-19 1 6 7 14 11 13 11 13 10 4 2-4-19 1-1 8 1 37 13 18 4 31 3 13 3 11 6 9 9 6 10 5 15 1 4v10l-4 11-8 11-11 12-3 4h-2l-2 4-10 13-9 15-4 8h-4l-12-16-1 20-1 35-1 10 10-8 23-23h2v-2l7-6 6-7-14 2h-6l-2-2 6-12 10-15 6-8h2l2-4 14-15 4-5 6-10 3-10v-13l-4-15-2-8 4-3 11-5 16-6 25-8 29-6 15-4 8-4 9-8 1-2 4 2 5 4 7 8 2 4h2l6 7v2l3 1 9 11 13 16 14 20 11 19 5 13 4 10 4 17 1 8v22l-3 16-4 13-8 16-7 9-5 5-10 9-16 8-17 5-27 6-18 8-14 10-12 11-8 9-10 13-2 1-9-19v-2h-2l-1 8-12 54-1 4 16-10 14-9 12-8 14-9-2-1-20-2 2-6 9-10 7-8 9-9 13-9 14-7 12-4 24-5 18-6 12-7 10-8 7-7 7-10 8-16 5-15 2-7 1-1h15l21 3 17 5 10 6 5 5 5 6 2 6v13l-5 15-8 16-10 14-12 12-14 10-15 8-15 9-5 2-9 7-15 10-14 10-13 10-13 9-19 12-15 8-15 6-20 6-24 4-24 1-19-1-19-3-16-5-12-5-11-8-5-5-7-10-3-11v-13l4-12 12-22 7-14 2-7v-18l-2-5v-3l19-8 13-5 19-10 15-10 8-6 9-7 8-7h2v-2l8-7 10-9 6-6h2l2-4 11-11 7-8 5-6h2l8 20 4-10 7-25 7-23 2-6-24 13-32 18-3 1v2l13 1 10 2-4 6-14 15-7 8-5 5h-2v2h-2v2l-8 7-3 3h-2v2l-11 9-6 5h-2v2l-19 13-10 6-17 9-66 26-20 8-36 13-15 5-10 2h-18l-15-4-11-6-9-7-9-11 1-38v-45l-4-25-5-25-8-27-3-6v-5l7-14 3-10 2-13-1-3 5 2 11 7 17 8 12 5 12 6 11 8 11 11 5 8 5 16 1 6v21l-5-2-14-10 2 10 15 51v2l3-3 13-25 12-22 5-9-22 10h-1l-1-27-4-16-6-12-8-10-8-7-13-8-19-9-18-8-14-9-6-7-5-11-3-15-3-52v-88l2-53 2-21 2-3 9 10 10 7 13 6 11 2h21l17-4 13-5 16-8 5-3 5 2 13 9 6 5 7 8 8 10 8 13 3 6-1 2-22-4 7 8 12 13v2h2l7 8 2 4h2l7 8 5 6 1-4 2-48v-14l-12 14-2 3-3-1-8-15-10-14-8-9-8-7-11-8-2-1 1-3 11-8 9-7h2v-2l10-8 16-12 16-11 15-10 15-9 20-11 17-7 18-4h26l16 4 16 6 19 10 5 3v2l-20 10 18 4 46 9-2-5-10-14-8-12-14-20-2-3-1 6-1 17-5-2-10-6-19-9-15-5-10-2-10-1h-13l-20 3-15 5-16 8-17 9-16 10-12 8-17 12-16 12-13 11-16 12-13 8-14 8-21 8-9 2-9 1h-9l-12-2-12-5-10-7-7-7-7-10-7-15-4-15v-26l3-16 5-15 11-23 11-15 11-13 9-9 17-13 15-10 14-10 9-8h2v-2l5-5 6-7 8-16 3-14v-18l-3-28v-16l3-26 2-1 5 10 9 10 9 6 10 4 16 3 31 1 19 2 9 3 8 5 8 9 5 8-24 1 32 24 15 11 7 5-3-16-7-44v-7h-2l-2 6-8 14-2 1-6-9-8-9-9-6-16-4-8-1-34-1-14-2-12-4-9-6-8-9-5-10-2-8v-17l4-12 9-14 10-13 10-16 6-14 2-10v-18l-4-13-7-12-8-9-16-11-16-8-21-7-12-3 4-6 10-12-10 1-40 9-14 3 10 7 18 11 19 12 9 5-8-22 11 2 24 8 18 10 10 9 5 5 6 9 4 11 1 5v11l-3 12-8 17-9 13-10 13-8 14-5 17-6 37-1 9v30l3 28-1 15-4 12-6 10-9 10-7 7-12 9-19 13-11 8-11 9-11 11-6 7-4-1-10-8-8-11-7-16-4-17-2-16v-45l3-27 5-29 7-29 10-40 5-28 2-23v-16l-2-22-5-23-10-33-4-18-1-8v-16l4-17 7-20 4-17 2-10v-14l-3-12-5-12-8-16-5-16-2-12v-22l4-24 7-30 8-23 3-16v-11l-4-14-3-5v-51l7-8 9-7 8-4 16-3h13l20 4 17 8 12 8 12 11 6 7 7 11 5 14 1 9v16l-4 29-6 24-2 9-3 14-1 8v39l3 17 9 27 8 17 4 10 3 13v18l-3 16-4 10-7 11-4 6-6-1-17-9-9-7-10-9-6-6-6-11-7-18-4-20-3-43v-38l1-32 4 1 8 5 3 1v2l5 1-3-11-8-21-7-19-5-10-13 28-13 31h2l16-8h2l1 94 3 27 4 16 5 14 6 11 6 8 4 4v2h2l4 5 8 5v2l5 2 13 8 10 5 16 6 9 2h24l20-6 12-6 10-6 11-8 3-3 7-5 3 8 4 13 6-12 4-11 11-28 3-9-8 2-18 8-15 7-14 6-4 3 18 5v4l-10 9-13 9-14 7-18 5h-20l-12-3-2-1 2-5 8-13 4-11 3-11 1-12v-11l-2-14-5-15-4-8-7-16-6-18-2-9-2-18v-16l3-23 7-31 6-29 1-12v-17l-2-13-3-10-8-14-3-5-14-14-12-8-10-6-18-7-21-3h-10l-14 2-10 4-10 6-6 5-1-4-1-27-4-16-5-10 2-5 6-10 4-11 3-18 3-22 4-23 4-9 6-9 9-7 15-7 11-4 21-4z" fill="#FEFEFE"/>
<path transform="translate(728,14)" d="m0 0h24l22 3 16 5 14 7 9 7 8 8 7 11 7 14 3 9 4-17 5-10 7-9 8-6 16-8 18-6 16-3 8-1h24l16 2 29 7 41 12 55 12 22 6 13 5 13 7 10 7 9 7 7 8 5 6v2h20l18 4 16 6 14 8 12 9v2l4 2 7 7 11 15 8 16 6 16 13 38 8 17 12 18 11 16 13 18 14 21 12 20 8 16 7 17 4 17 1 15-1 10 9 2 19 10 11 9 3 2v2l4 2 9 9 10 13 9 16 6 16 4 20 5 37 4 16 6 15 14 19 9 14 5 10 5 17 1 6v27l-2 12 6 12 3 11v8l-3 12-9 15 11 8 12 12 10 14 9 17 7 21 4 21 1 8v20l-2 12 13 10 8 8 9 12 8 14 6 16 4 18v34l-4 21-5 16-6 16-2 6 2 5 3 19 5 15 9 16 10 15 8 13 8 15 4 14 2 21-1 20-4 24-8 34-5 12-7 9-9 6-2 2 4 10 1 9v10l-2 16-7 21-9 16-8 10 2 5 3 7 2 17-2 16-6 20-9 20-11 20-11 15-12 14-9 7-9 4 3 18v16l-3 17-6 17-6 13-7 13-9 14-12 16-12 14-12 13-30 30h-2v2l-8 7-12 10-15 10-4 1-3 14-6 14-8 12-11 13h-2l-1 3-11 9-13 10-15 9-16 9-32 16-24 11-28 10-10 16-10 13-11 12-7 7-11 9-11 8-19 12-26 12-15 6-25 8-38 9-29 5-24 2h-18l-20-2-21-5-15-6-16-10-12-11-7-9-5-13-2-12v-88l-4-7-4-13-1-10v-90l3-16 4-12 9-16 9-10 6-7 1-2-11-2-16-8-10-8-5-5-5 12-6 10-7 8-5 4h-3l7 14 4 16 2 20v18l-3 24-5 29-1 3v8l2 11 1 21-2 16-4 13-6 12 4 17 1 7v27l-3 16-5 12-5 9-8 10-9 8-15 8-15 5-19 4-8 1h-37l-28-4-25-6-29-9-21-9-16-8-11-6-16-10-13-9-16-12-19-14-14-10-16-9-28-13-21-10-17-11-9-7v-2l-4-2-12-13-7-8-12-12-10-9-11-7-11-6-16-8-21-12-9-7-3-2v-2l-4-2v-2h-2v-2h-2l-12-17-7-12-8-19-5-18-2-21-9-7-10-10-10-14-10-18-9-20-5-11-12-26-13-28-14-29-24-48-4-9-9-21-10-26-6-18-8-30-6-31-4-29-2-22-1-18v-66l3-46 5-49 8-61 8-54 6-24 7-18 11-16 9-8 12-6 3-1h15l11 4 10 8 9 13 7 14 10 29 8 19 7 13 8 11 7 8v2l4 2 7 6 7-1 20-6 25-4-3-29v-32l2-16 6-21 7-13 9-10 12-6 10-2 14 1 15 5 14 8 9 7 7 6v2h2l10 13 3 5v2l15-2 14-4 16-8 11-8 11-10 11-15 9-16 10-21 3-8 5-21 1-8v-12l-2-10-5-12-8-10-11-11-14-11-16-13-13-13-12-19-8-14-8-10-8-7-16-8-10-3-14-1-16 3-22 7-9 1 8 14 4 6v2l-9-3-36-14-17-7v-2l18-8 31-13 9-4h3l-2 6-6 10-2 4 19-5 16-5 7-1h15l16 4 11 5 11 7 3 3v-54l3-21 6-18 4-8 10-13 7-8h2l2-4 9-9 7-8 12-15 8-14 5-11 5-16 3-16 1-21-2-18-4-16-7-16-11-21-5-10-4-12-2-11v-12l2-14 5-16 7-13 10-15 9-10 6-7 3-3h2v-2l11-9 13-10 19-12 9-8 3-5v-10l-4-9-7-9-10-11-7-10-3-7-1-5v-16l6-16 8-11 8-8 14-10 27-14 23-11 25-10 24-7 21-4zm-9 9-23 3-24 6-24 9-18 8-17 8-19 10-14 9-12 11-8 14-2 7v15l2 7 9 12 7 8h2l2 4 7 11 3 11-1 11-5 8-1 3h-2v2l-4 2-17 11-16 11v2l-4 2-10 9-5 5-11 12v2h-2l-7 11-9 17-4 14-1 6v18l3 12 5 12 10 19 8 16 6 21 2 14v25l-3 19-6 20-7 16-10 15-11 13-11 12-4 5-5 5-10 11-7 11-5 14-4 20-1 11v35l2 24 13 23 8 12 4 5 8 7 12 10 14 11 4 2v2l8 7 9 10 7 12 4 15v20l-3 16-9 31-5 17-2 11v25l5 25 9 25 8 16 10 16 12 14 9 9 14 10 17 9 18 6 14 3 9 1h32l22-3 13-3-2-4-3-1v-2h-2v-2l-8-8 20 2 43 6 2 1-14 10-21 16-15 11-3 2 5-19v-4l-24 4-21 2h-16l-20-2-18-4-16-6-16-8-16-12-14-14-9-12-9-14-7-15-6-15-6-20-3-16-1-10v-21l-4 4-10 14-7 7-13 10-19 10-15 5-13 2-2 2 2 9v16l-4 26-3 17v17l3 12 6 11 4 5 11 9 14 8 14 6 24 8 4-1-5-22 11 9 15 13 14 12 10 8 1 2-21 1-30 2h-14l8-7v-2l4-2 3-3v-2l-32-11-19-9-11-8-3-1v-2h-2l-2-4-7-9-5-11-2-9v-23l6-34 1-16-3-16-7-13-7-9h-2l-2-4-12-10-14-8-11-4-4-1h-15l-12 5-8 9-7 13-5 19-2 18v19l3 32 4 32 3 40 5 26 6 17 7 14 8 10 2 3h2v2h2v2h2v2l8 7 12 9 14 8 13 6 14 4 15 2 20-1 21-5 17-6 26-11 31-13 27-9 30-7 24-3h36l19 3 13 5 12 7 12 11 8 11 6 10 7 18 4 15 2 15v29l-3 30-3 27-1 15 5-2 14-8h2l-10 24-13 32-1 5h-2l-1-5-11-27-12-30 19 11h2l4-38 3-26 1-13v-19l-2-17-4-15-5-13-7-13-10-13-4-4h-2v-2l-12-8-14-5-20-3h-28l-24 3-24 5-29 9-25 10-27 12-24 9-19 5-15 2h-18l-17-3-15-5-16-8-16-11-14-12-10-11-8-13-6-12-6-20-4-21-3-35-2-21-1-5-14 1-21 5-18 6-16 6-18 5-6 1h-20l-16-4-6-3-2 6-3 16-1 1-29-58 11 3 35 12 15 5-3 2-17 6 4 3 9 3 6 1h13l16-3 18-6-2-4-12-12-11-16-10-19-9-25-7-19-7-14-8-10-9-6-6-2h-10l-8 3-9 6-7 8-8 13-7 21-5 22-9 64-5 37-6 58-3 55v42l2 38 5 40 6 31 7 27 9 27 10 25 9 20 11 24 8 15 9 19 15 30 15 33 16 35 8 17 9 15 9 11 8 8 16 12 23 14 19 12 17 10 23 13 28 14 25 10 17 6 26 6 26 4 21 2 39 1 19 1 16 4 12 7 8 9 8 16 8 14 11 12 12 9 10 6 20 8 19 5 22 3h27l-2-5-10-13-1-2 47 14 14 4h3v2l-6 2-19 10-33 18 3-9 5-11v-2h-17l-24-2-17-3-17-5-19-8-14-9-10-8-10-11-7-12-8-16-6-8-6-5-12-5-10-2-43-1-29-2-28-4-30-7-26-9-17-7-16-8-27-14-20-12-23-14-21-13-4-2v10l4 15 6 16 10 19 10 13 4 5 14 11 13 8 16 8 22 12 10 7 13 11 8 8 7 8 11 13h2l2 4 10 8 13 8 21 11 24 11 21 11 16 11 16 12 13 10 22 15 18 11 23 12 20 8 21 7 23 6 22 4 20 2h23l22-3 20-6 14-7 9-7 10-13 5-11 4-14 1-12v-12l-2-16-2-5-7 6-13 13-13 9-12 7-17 7-21 5-16 2h-20l-20-3-19-5-20-9-18-10-14-9-20-14-18-13-27-18-16-9-19-9-9-3h-3l2 10 4 13-15-11h-2v-2l-10-7-19-14-8-6 26-4 40-6-7 8-9 9 1 2 17 6 17 8 17 10 15 10 17 12 18 13 24 16 21 12 19 8 13 4 18 3h28l19-3 18-6 17-8 14-10 12-11 11-12 8-14 4-12 2-11v-21l-1-7h-2l-7 8-5 4-10 3h-9l-10-3-10-6-8-10-5-13-3-19-3-23-4-10-2 3-7 17-2-4-16-57-1-3 15 9 11 6 24 14 8 5-22 3-1 3 4 11 3 21 3 20 4 12 9 10 4 3 8 3h12l8-5 7-8 4-8 4-16 5-27 1-10v-30l-3-21-5-13-7-9-8-7-15-7-13-3-11-1h-24l-21 2-36 6-17 4-19 7-13 7-10 8-8 10-5 12-2 9v12l3 11 5 8 8 6 12 6 20 8 6 3h2l2-9 1-15h2l2 6 10 17 13 22 8 14-24-7-30-8-7-2h-4v-2l9-3 12-5-3-3-29-12-12-7-8-9-3-6-2-10v-19l3-12 5-10 7-9 10-9 12-7 6-3-3-4-5-11-7-10-10-8-14-7-13-4-17-2-17 1-20 4-20 6-9 2h-21l-16-4-16-8-11-7-13-10-13-12-8-8-11-16-5-11-8 6-7 7-3 2 1-10 10-51v-4l4 4 10 16 24 36-20-7h-2l2 7 8 12 12 13 12 11 18 13 14 8 16 5 6 1h13l20-5 17-5 19-3h21l17 3 17 6 15 10 9 10 8 16 1 6 24-7 27-5 30-4 16-1h12l20 2 18 5 8 4h2v2l6 4 5 3v-3h2v-2h2v-2l4-2 6-8 7-14 3-13 2-51v-16l-2-25-5-27-7-27-5-11-2-1-9 6-15 7-14 4-11 2-15 1-1 1 1 10 1 8v19l-4 20-6 16-6 9-6 8-11 7-13 4h-17l-15-4-16-6-19-10-14-9-8-6h-2v-2l-11-9-12-11-8-8-3-4h-2l-2-4-9-11-11-17-11-18-8-12-5-5-3 1-3 14v3l-4-2-13-27-9-17-4-11 7 1 40 14 11 4h2v4l-8 2-10 4 1 4 10 13 7 11 11 18 7 11h2l2 5 10 11 22 22 6 5 15 11 16 10 21 10 18 6 5 1h11l13-4 10-9 6-8 5-10 5-16 1-5v-28l-4-13-2-1-22-3-19-5-22-8-23-13-11-8-10-9-6-7h-2l-2-4-9-14-5-12-3-10-4-1-13 9-3 1 5-17 10-29 5-14 4 1 11 24 12 26 1 6-5-2-10-5h-3l1 8 8 17 8 10 14 14 14 10 9 5 16 8 12 5 19 5 17 3h32l19-4 13-5 12-7 8-8 8-14 3-10 2-19 1-3-6-15-2-11-3-44v-116l2-40 3-24 1-7-7-15-4-16-1-18 1-14 5-22 8-20 9-16 4-5v-2l-8-6-6-5-9-13-7-16-5-23-2-22v-22l2-28v-7l-2 3-9 20-8 15-10 15-12 14-9 8-11 7-11 5-16 4h-21l-18-3-19-7-16-9-9-8-9-14-5-15-2-11v-23l4-16 8-15 9-12 14-19 10-16 5-13 1-4v-18l-5-14-8-11-8-8h-2v-2l-16-10-15-7-21-6h-2l1 5 6 17-44-26-11-7-1-1 62-15 1 1-8 10-5 7 4 2 17 5 15 6 16 9 11 9 7 7 7 11 5 11 2 12-1 16-4 12-9 17-12 17-14 18-6 11-5 13-1 8v16l3 16 5 12 8 11 11 9 17 8 17 5 12 2h14l11-2 14-5 14-9 10-9v-2h2l10-13 7-11 12-23 9-23 10-30 9-32 4-11 7-30 4-27v-39l-3-19-8-29-6-21-4-20v-23l4-17 6-16-1-2-8 7-17 10-24 8-26 5-41 6-16 4-12 5-11 7v3l16 6 19 9 11 7 12 9 13 13 9 13 8 16 5 17 2 9 1 12v17l-2 20-5 23-8 26-11 28-3 6v2l19-1 5-1v2l-4 2-9 9-8 7-12 11-2 1v2l-4 2-9 9-2 1 3-50v-17l5 5 8 12 3 1 9-21 8-22 7-26 4-24v-30l-4-20-6-16-10-16-12-13-8-7-15-10-17-9-24-9-5 2-17 12-17 9-18 6-15 3-10 1h-19l-15-2-16-4-7-2 1 13 1 11-21-21-7-8-17-17 1-2 64 2-5 4-13 10 3 2 19 5 8 1h27l20-4 15-5 16-8 10-7 12-9 15-11 12-6 16-5 30-5 29-4 25-6 15-6 14-9 10-9 6-8 3-9 1-10-4-16-11-22-6-18-3-22 1-20 4-24 7-30 7-20 3-12v-15l-4-11-4-6-5-6-11-8-10-5-9-3-5-1h-24l-12 3-16 8-10 9-7 8-4 8-4 13v16l3 21 7 38 2 20v17l-2 16-5 16-6 11-8 10-10 9-11 7-16 8-15 5-11 2h-26l-13-3v24l-12-14-11-13-9-11-2-3h-2l-2-4-4-5h9l52 5 4 1-17 11-1 2 13 3h16l16-3 14-5 14-7 11-8 7-6 9-12 6-12 3-12 1-7v-29l-4-27-6-33-1-7v-24l4-13 5-10 3-4v-2h2l6-7 14-9 11-5 18-4h16l16 3 13 5 11 7 6 4v-26l-1-52-3-16-5-10h-3l-12 7-16 5-17 3-26 2-35 2-21 5-15 6-15 9-12 9-12 11-13 14-9 13-10 16-10 24-5 18-2 14v18l4 18 8 15 9 9 11 7h2l-1-11-3-12 11 9 13 12 11 9 13 12h2v2l-8 1-56 3-2 1 4-5 11-9 2-4-11-6-12-11-8-12-5-14-2-9v-29l3-16 7-21 12-25 13-19 6-7v-2h2l7-8 9-9 17-13 16-9 15-6 20-5-1-6-8-12h-2l-2-4-12-11-3-3h-2l-2-4-7-8-6-12-1-3v-15l5-9 8-6 7-3 6-1h19l22 5 17 6 5 1-2-23 5 4 1 2h2l2 4 15 15 7 8 8 8 1 2h2l3 6-2-1-51-2h-14v-2l4-2 7-4v-2l5-2 3-3-12-5-17-5-17-3h-9l-12 3-6 4v2h-2l-3 7v7l4 10 8 11 11 11 8 7 10 11 4 8 3 7h19l32-2 19-3 15-5 11-6 9-8 7-12 4-12 1-8v-12l-2-16-6-18-8-15-8-10-11-9-10-5-15-5-17-3zm207 3-18 2-17 4-15 6-11 6-7 6-6 9-4 12-5 31-3 24-4 13-6 11-3 4 2 6 5 12 2 10 1 27 2 4 9-8 12-6 8-2 10-1h10l21 3 18 7 10 6 14 10 8 8 5 6 8 13 4 10 2 8 1 9v17l-2 17-5 24-7 31-3 23v16l2 18 4 15 7 20 4 8 6 13 4 14 1 10v14l-2 13-3 10-4 10-9 14v2l8 3 6 1h20l20-6 17-9 10-8 8-7v-4l-18-5 4-3 25-11 13-6 11-5 6-1-5 14-10 26-5 12-4 8-6-20h-3l-5 4-11 9-9 6-11 6-14 5-11 3h-24l-15-4-11-5-14-7-11-7h-2v-2l-9-6-3-4h-2l-2-4-6-7-6-10-6-14-4-16-3-21-1-10-1-94-7 2-8 5-5 2 5-13 13-30 8-17 4 8 8 21 10 27 1 5-5-1v-2l-8-4-4-3h-3l-1 32v40l3 41 4 20 7 18 7 12 12 12 12 9 19 10 5-1 11-18 4-13 2-11v-18l-4-16-4-9-9-20-7-22-3-17v-39l3-18 2-6 3-14 4-17 4-29v-19l-3-12-5-12-9-12-10-10-13-9-16-8-8-3-16-3h-13l-16 3-11 6-8 7-5 6v51l4 8 3 11v11l-3 16-9 27-8 36-2 14v22l3 16 4 12 8 16 6 14 2 10v14l-5 24-7 20-4 14-1 6v16l3 18 14 49 3 15 2 22v16l-2 23-5 28-11 44-7 30-5 31-2 20v45l3 21 4 15 8 16 6 8 11 9 4-1 14-15 10-9 18-13 12-8 11-8 12-11 9-10 7-14 2-7 1-15-3-28v-30l3-22 5-29 6-16 9-14 13-17 9-17 4-12 1-5v-11l-3-12-5-9-6-8-11-9-13-8-14-6-24-7-3 1 8 21-11-6-23-15-15-9-7-5 59-13h5l-12 14-2 4 25 7 19 8 14 9 10 8 7 9 7 14 2 8v18l-3 12-7 16-11 16-10 13-7 12-3 10v17l4 13 7 10 9 8 12 5 9 2 9 1 34 1 18 3 9 4 9 7 9 11 3 4 8-13 3-6v-2h2l1 13 8 51 1 3-15-11-19-14-17-13-3-2 24-1-7-11-8-8-10-5-11-2-13-1-31-1-16-3-12-5-8-6-8-9-5-10-2 1-3 26v16l3 28v18l-3 14-8 16-9 11-2 1v2l-4 2-12 10-24 16-14 11-10 9-11 12-13 18-11 23-6 19-2 12v26l4 15 8 17 9 11 9 8 14 7 7 2 8 1h9l13-2 14-4 20-9 19-12 18-14 13-11 18-13 16-11 15-10 19-11 16-8 16-7 18-4 9-1h13l15 2 15 4 18 8 15 8 4 3h2l1-17 1-6 16 23 11 16 9 13v2l-61-12-3-1 20-10v-2l-18-10-13-6-19-6-6-1h-26l-18 4-17 7-22 12-19 12-22 15-18 13-9 8-2 1v2l-4 2-12 9-7 5v2l12 8 12 12 9 10 10 16 5 9 3-1 9-11 4-5v14l-2 48-1 4-11-12-1-2h-2l-2-4-7-8h-2l-2-4-15-16-2-3 23 4-2-6-7-12-10-13-4-5-5-5-15-11-5-3-5 2-16 8-12 5-15 4-5 1h-21l-13-3-16-8-12-11-3-3-2 13-2 32-1 32v88l3 52 3 15 7 14 8 7 18 10 19 8 17 9 12 9 8 9 5 8 5 13 2 10 1 27 21-9 2-1-14 26-12 22-5 10-2 1-4-16-13-44v-3l17 12h2v-21l-4-17-5-10-9-10-9-8-11-7-11-5-19-8-13-7-7-5-2 1 1 4-4 18-5 12-3 5 1 7 5 13 6 23 7 37 1 8v45l-1 38 9 11 10 8 13 6 12 3h18l16-4 29-10 29-11 50-20 23-9 19-10 16-10 11-8v-2l5-2 12-11 2-1v-2l4-2 7-7 2-1v-2h2v-2l4-2 9-9 7-8 10-11 2-4-17-3h-6v-2l4-2 17-9 23-13 15-8-7 23-12 40-1 1-8-20-4 2-9 10-7 8-7 7v2l-4 2-11 11-8 7-3 2v2l-4 2-12 10-8 6-15 10-18 10-13 6-16 6-7 3 1 5 1 3v18l-5 14-14 25-5 12-1 4v13l4 13 8 11 14 10 17 7 16 4 14 2 27 1 24-2 24-5 20-7 19-9 22-14 10-7 20-15 13-9 15-10 7-6 7-3 16-9 14-8 13-10 11-11 7-10 8-14 6-16 1-4v-13l-4-9-5-6-9-6-16-6-17-3-9-1h-15l-2 2-4 16-7 16-7 11-11 12-12 9-14 7-21 6-16 3-17 6-14 8-11 9-12 12-9 11-3 5v2l20 2 2 1-14 9-15 10-16 10-11 7 8-35 6-27v-4h2l3 9 6 12 5-5 14-17 9-9 15-11 16-8 13-4 27-6 16-6 10-6 11-9 8-10 8-14 5-13 3-14 1-7v-22l-3-17-5-17-5-11-6-12-10-16-11-15-9-11-11-13-2-3h-2l-2-4-4-5h-2l-2-4-7-8-7-6h-2l-4 5-9 7-15 5-30 6-26 8-25 10-8 4-1 3 5 16 1 5v13l-4 12-6 10-12 12-7 8v2h-2l-11 15-9 15-2 6 2 1 15-1 5-1-7 8-6 5v2l-4 2-18 18-8 7-5 4 1-10 1-35 1-20 10 13 2 3h4l6-12 10-15 9-11v-2h2l7-8 9-10 7-11 3-9v-10l-5-16-6-11-7-8-6-5-11-5-18-3-23-2-18-4-40-14h-5l-1 2 4 18-5-3-14-11-13-11-14-11-4-5 19-1 45-4-6 7-6 5v2h-2v3l16 6 31 11 16 3 31 3 12 3 13 7 10 9 2 3 6-1 20-9 27-9 25-6 20-4 9-4 8-6 6-7 7-15 3-16v-22l-3-17-6-12h-2l-2-4-6-7-12-9-4-1-1 3-2 18-3-1-1-4-10-15-15-22-7-11 17 3 40 8 6 2-17 9-1 2 5 5 12 9 11 14 5 12 3 16 2 7 22 12 17 8 5 2 22 8 18 4h24l11-4 7-6 12-17 10-18 10-23 11-29 9-21 6-11 2-3-1-5-11-5-13-4-9-2h-20l-10 3-11 6-8 6-5 5 1 2 15 3h5v2l-5 2-38 19-12 7h-3l20-60 2 2 5 15 4 3v-2l4-2 4-3v-2l5-2 12-7 12-4 11-1 19 2 18 5 12 6h5l14-14 10-7 10-6 18-7 26-8 9-4 10-6 1-3h2l5-8 3-10 1-7v-32l-3-32-4-21-6-18-8-16-3-1v2h-2l-6 14v3h-2l-2-10-5-20-4-15-4-16v-2l24 14 16 10 14 9-20 4 1 5 9 19 6 21 3 1 14-6 11-2h16l13 4 9 6 3 3h2l6-15 7-26 2-16v-19l-3-17-6-18-7-13-8-11-12-12-6-4-3 1-5 8-4 5-9 6-12 4-7 1h-20l-14-1h-14l-13 2-13 5-13 9-8 8-7 10-7 14-5 15-3 20v27l6 40v16l-4 14-6 8-7 6-15 7-27 9-47 18-25 9-22 6-22 4-10 1h-19l-15-2-23-5-10-1h-19l-18 3-12 4-15 8-12 11-6 9-3 9v10l4 14 6 16 5 14 3 12v19l-4 13-4 7-9 7-12 4-5 1h-21l-24-5-33-11-25-12-19-12-14-11-9-8h-2l-5 18v4l-3-3-11-27-12-29v-2l29 12 31 13-8 3-12 3v4h2v2l14 11 10 7 18 11 15 7 24 9 21 6 10 2 18 1 15-3 8-5 6-7 3-8 1-5-1-17-4-15-8-19-4-13-1-5v-17l4-11 7-9 2-4 4-2 9-7 14-7 15-5 14-2h29l17 3 20 4h30l18-3 27-7 25-9 39-15 34-12 12-5 9-7 6-10 1-4v-23l-5-27v-41l3-17 6-18 8-15 6-9h-27l-18-2-16-5-10-5-8-6h-2l-2-4-6-7-7-14-2-8v-18l4-15 11-25 3-13v-18l-2-5-5 5-10 11 1-27 2-32v-7l5 5 10 11 9 11 11 12 8 10v1l-22-4 1 21-2 15-6 17-8 19-3 11v11l4 13 6 11 9 9 10 6 9 4 18 4h30l12-1 4-1 13-8 9-4 12-3h59l13-4 10-9 5-9 4-13v-27l-3-18-5-17-6-15-7-12-10-13-8-8h-2v-2l-10-7-5 2-11 7-13 4 5 13 1 4v17l-4 12-6 10-11 12-16 11-10 5 2 4 11 9 4 4-66-1 41-41 6-5-2 16v7l12-6 11-8 4-3v-2l4-2 6-8 5-10 2-8v-9l-3-11-7-10-14-14h-2v-2l-11-9-16-13-12-8-17-9-15-5-17-4-10-1h-17l-20 3-19 5-9 4-14 7-16 10-13 10-7 8-3 6v10l4 6 14 17 10 14 8 16 3 15 1 8v28l-2 23 9-2 11-4h2l-13 21-10 15-11 18h-2l-13-62-1-2 4 3h2v2l12 9 2-1 2-15 1-23-2-20-3-12-6-12-6-9h-2l-2-5-12-14-6-8-2-7v-9l4-10 7-8 9-8 15-10 18-10 16-7 27-6 17-2 4-8 2-5 1-16-4-17-5-10-8-11-10-8h-2v9l2 13-8-7-7-7-7-8-24-24-1-2 32 1h35l-5 5-9 6-5 5 13 10 9 11 7 14 3 10 1 7v16l-3 12-1 3 1 1 20 3 19 5 21 9 9 6 14 10 11 9 8 7h2v2l8 7 6 6h2v2l16-4 12-7 5-5 7-9 4-8 1-4v-11l-4-11-6-11-11-14-10-9-8-5-14-4-21-3-12-6-5-6-4-8-6-28-5-16-7-15-4-5-8 14-2 6h-2l-1-10-9-49v-6l10 7 18 13 20 14 5 5h-18l-5 1 9 20 7 21 4 21 4 10 4 5 8 4 7 2 22 3 10 4 11 7 16 16 1-4v-20l-4-18-5-12-7-12-10-13-8-12-6-14-5-22-5-37-5-21-7-16-7-10-7-9-11-12-10-8-16-10-12-5h-3l-7 13-4 5v2l-4 2-4 4 1 7 4 15 1 6v19l-4 13-7 10-8 7-12 6-13 4-22 3-24 1-12 2-12 5-12 7-13 12-9 12-8 14-5 11-5 17-2 12v25h3l2-1v-2l4-2 7-7 2-1-1 9-9 51v5l-3-3-22-32-13-19h3l19 6v-21l2-18 5-19 8-18 9-15 12-14 12-10 15-8 13-4 6-1 33-2 13-2 14-4 13-7 7-7 5-10 2-9v-12l-4-18-4-12-9-20-11-19-12-18-15-22-14-21-10-16-10-18-8-17-10-23-9-17-10-13-4-4h-2v-2l-13-8-11-4-11-2h-18l-11 2 6 7 4 5 5 5-24-3-41-6 13-10 18-13 19-14 3-2-3 11-3 12 11-1h24l13 3 13 5 10 7 6 5 9 11 8 13 11 23 9 21 11 21 14 22 13 19 26 39 8 14 8 16 3 3 5-5 6-8 5-12 1-5v-19l-4-16-6-16-10-19-13-21-13-19-13-18-11-16-11-17-8-17-12-36-8-21-6-11-8-11-9-10-12-10-13-8-17-7-20-4h-10l1 5 2 8-1 10-4 6v2l-4 2-8 3-7 1h-13l-30-5-16-1-16 3-10 4-8 7-6 11-6 13 1 5 10 14 13 20 8 14 8 19 5 19 2 13 1 24-2 22-1 8 21 3 13 5 11 7 9 8 1 2h2l8-20 1-1 11 38 7 25-15-8-14-8-16-9-12-7 17-3 5-1-2-4-11-9-14-7-7-2h-22l-12 3-12 5-13 7-1 3 18 8h2v2l-11 2-53 12 6-11 10-15 7-11 10-16 3-3v11l2 13 12-7 17-7 14-4 2-12 1-11v-27l-3-20-5-17-8-18-9-15-12-18-9-12-9-11-14-14-13-9-10-6-20-7-20-4h-2l2 6 7 15-6-2-17-9-23-11-13-7 56-18 7-2-7 11-6 9 26 5 21 8 16 10 10 8 6 6h2l2 4 5 4 7-15 6-10 7-6 12-6 16-3h15l31 5 13 1 12-2 7-6 1-2v-9l-4-9-7-11-14-14-14-9-14-7-18-6-29-7-30-6-68-19-17-3-11-1z" fill="#EA1A4A"/>
<path transform="translate(545,106)" d="m0 0 4 1 1 1v15l3 10 6 9 9 10 8 10 5 9 1 3v10l-6 8-8 7-15 9-16 12-9 8h-2v2h-2l-1 3h-2l-1 3-5 5-9 10-12 19-5 11-4 13-2 14v12l4 18 6 14 9 16 8 17 4 12 3 15 1 20-2 19-5 21-7 16-6 11-10 13-10 11-7 8-6 7-5 5-9 10-6 9-7 19-3 16-1 9v55l-8-6-11-6-13-5-10-2h-15l-14 3-23 7-6 1 2-5 9-16-17 7-26 11-16 7h-2v2l9 3 31 12 22 9-12-20v-2l19-5 15-5 13-2 14 1 13 4 13 7 10 9 10 14 11 19 8 11 13 13 14 11 16 13 12 12 7 11 4 11 1 7v12l-3 18-5 18-8 16-9 17-8 12-9 11-11 10-18 11-16 6-10 2h-10l-7-11-6-7v-2h-2l-5-5-8-7-13-8-15-6-12-2-13 1-12 5-9 8-8 14-5 15-3 14-1 10v32l3 29-1 1-25 4-20 6-7 1-8-7-5-5-7-8-7-10-10-19-7-18-6-18-5-12-7-13-8-10-9-6-9-3h-15l-12 5-5 4h-2l-2 4-5 1-3-8-1-8v-18l4-16 4-10 10-14 9-8 6-4 3-16 5-10 18-24 5-9 3-10v-30l-4-27v-37l3-22 6-22 8-22 12-22 7-10 6-8 12-13 10-10 12-9-1-9-2-20v-16l2-17 4-18 6-20 13-34 10-23 12-20 11-13 29-29 7-8 9-13 4-9 11-32 7-14 4-6h2l2-4 9-8 15-10 13-9 9-7 11-11 6-5 7-8 11-10 5-5 10-7 9-6 17-8 21-7z" fill="#FEFEFE"/>
<path transform="translate(1025,1603)" d="m0 0 3 3 2 6v8l-4 13-13 24-6 12-3 8-1 1-22 1-17 4-10 6-7 6-7 11-4 13-2 17v24l-22-8 6 11 8 13 14 23 6 9h1l15-64-8 6h-2v2l-9 6-1-4v-26l4-15 6-11 8-8 14-6 5-1 18-1 6 1 4 18 7 13 8 8 14 9 15 6 21 5 14 2h40l21-3 24-6 22-9 20-11 15-10 17-12 5-4 8-6 17-12 6-4h2l2 16 7 19 9 13 9 8 16 8 16 4 18 1 16-3 4-1-2 9-7 14-8 11-8 9-8 7-3 1v2l-22 15-18 11-16 8-27 13-24 10-27 9-21 5-21 3h-21l-51-5h-12l-18 2-20 6-20 9-17 9-21 13h-1l-2-23-8 11-13 19-12 17-4 6 10-1 52-10 2-1-17-9-3-2 10-7 18-10 17-9 21-8 11-3 7-1h29l37 4h30l25-4 11-2-7 11-11 14-14 14-14 11-13 9-13 8-19 9-15 6-30 10-32 8-36 6-10 1h-36l-19-3-16-5-16-8-9-6-10-9-6-8-4-11-2-15v-59l1-12 14 12 10 6 14 5 5 1h24l17-5 16-8 27-15 23-11 17-6 21-5 9-1h14l20 4 17 6 11 2h16l16-3 18-6 19-9 15-9h2l1 3 2 19 8-11 8-13 8-12 11-17v-2l-52 11-8 2h-4v2l6 2 14 7v2l-16 9-16 8-16 6-14 3h-19l-15-4-8-3-11-3-7-1h-28l-20 4-23 8-25 12-27 15-12 6-16 5-7 1-16-1-11-3-14-8-11-10-8-10-5-9-3-15v-92l3-16 7-16 6-9 4-5h2l2-4 8-8 2-3 18-2 14-4 32-11 26-10z" fill="#FEFEFE"/>
<path transform="translate(1542,1028)" d="m0 0h18l11 4 10 9 4 6 3 14 3 15 8 18 9 14 13 20 8 16 5 16 1 8v20l-3 23-8 35-4 12-5 8-7 6-6 3-5 1h-13l-10-5-7-7-14-29-8-9-14-7-7-1h-17l-14 3-17 7-14 9-10 9-7 7-11 17-11 22-10 23-8 16-9 14-7 9-12 14-17 17-8 7-7 6h-2l-1 2-2-4-3-18-5 8-15 28-9 17-2 5 17-5 28-9 16-5h2v-2l-10-3-11-4 2-4 11-9 7-7 8-7 5-6h2l2-4 11-12 11-16 8-14 7-14 11-25 11-21 12-16h2v-2l8-7 10-7 15-7 15-4h19l9 3 6 4 6 7 8 16 8 15 9 8 9 4 4 1 14 1 4 6 2 8v16l-4 19-7 17-7 11-9 10-5 3-5 1-7-3-7-8-10-18-5-10-11-12-10-5-4-1h-15l-13 4-10 6-12 11-4 5h-2l-2 4-14 19-9 14h-2l-2 5-16 24-12 21-15 30-13 30-9 28-3 13-5-2-13-5-11-3-14-2-23-1v-16l-2-21-5-19-7-17-6-12-10-16-10-14-10-13-8-9-7-8-9-10-11-12-7-7 6-17 2-9 1-11 2-1 23 11 17 8 27 9 16 3 16 1 14-2 10-4 4-2 2-4 7-8 12-19 8-16 10-24 14-36 8-16 8-12 4-5 5-5 12-10 15-9 12-5 30-9 16-8 10-9 6-12 3-13 1-11v-13l-3-36-1-15 15-7z" fill="#FEFEFE"/>
<path transform="translate(728,14)" d="m0 0h24l22 3 16 5 14 7 9 7 8 8 7 11 7 14 4 13 3 14v5l2 1-3 24-4 13-6 11-3 4 2 6 5 12 2 10 1 27 1 3 9-8 12-6 8-2 10-1h10l21 3 18 7 10 6 14 10 9 9 5 6 8 13 4 10 2 8 1 9v17l-2 17-5 24-7 31-3 23v16l2 18 4 15 7 20 4 8 6 13 4 14 1 10v14l-2 13-3 10-4 10-10 16 14 3h20l20-6 17-9 10-8 8-7v-2l-18-5v-3l15-7 17-7 10-5 11-5 7-1-4 13-6 14-5 14-5 12-4 9-2-1-6-20-7 5h-2l-1 3-14 10-16 9-15 5-8 2h-24l-15-4-11-5-14-7-13-8v-2l-5-2-7-6v-2h-2l-7-8-7-11-7-16-4-16-3-21-1-10v-94l-20 10-1-2 11-26 9-20 7-14 2 2 3 7 8 21 10 27 1 6-6-2v-2l-5-1-7-5-3-1v72l3 41 4 20 7 18 7 12 11 11 12 9 19 10h4l11-18 4-13 2-11v-18l-4-16-4-9-9-20-7-22-3-17v-39l3-18 2-6 3-14 4-17 4-29v-19l-3-12-5-12-9-12-9-9-13-9-16-8-8-3-16-3h-13l-16 3-11 6-7 6-5 6v51l4 8 3 11v11l-3 16-9 27-8 36-2 14v22l3 16 4 12 8 16 6 14 2 10v14l-3 12-12 14-9 8-17 10-24 8-26 5-41 6-16 4-12 5-11 7 4 2 21 9 17 9 16 12 14 14 9 13 8 16 5 17 2 9 1 12v17l-2 20-5 23-8 26-11 28-4 8 19-2h5v2l-8 7-16 15-8 7-3 1v2l-8 7-5 5h-2v-14l3-53 4 2 10 15 2 1 3-9 8-20 8-24 5-21 3-19v-30l-4-20-6-16-10-16-12-13-11-9-18-11-15-7-19-7-5 2-17 12-17 9-18 6-15 3-10 1h-19l-15-2-16-4-6-2 2 23-2 1-7-8-14-14v-2l-4-2-7-8-13-13 1-3 65 2v3l-10 7-7 5 16 5 13 2h27l20-4 15-5 16-8 10-7 12-9 15-11 12-6 16-5 30-5 29-4 25-6 15-6 14-9 10-9 5-7 3-9 1-10-4-16-11-22-6-18-3-22 1-20 4-24 7-30 7-20 3-12v-15l-4-11-4-6-4-4v-2l-4-2-10-7-16-6-5-1h-24l-12 3-16 8-10 9-6 7-4 8-4 13v16l3 21 7 38 2 20v17l-2 16-5 16-6 11-8 10-11 10-11 7-16 8-15 5-11 2h-26l-12-3v24l-5-4-8-10-9-10-7-9-6-7v-2h-2l-7-9v-1h10l52 5 5 1-5 5-13 8 6 2 6 1h16l16-3 14-5 14-7 11-8 6-5 9-12 6-12 3-12 1-7v-29l-4-27-6-33-1-7v-24l4-13 5-10 4-6h2l2-4 8-7 14-8 11-4 14-3h16l16 3 13 5 11 7 5 4v-25l-1-52-3-16-5-10-14 8-16 5-17 3-26 2-35 2-21 5-15 6-15 9-12 9-12 11-12 13-9 13-10 16-10 24-5 18-2 14v18l4 18 8 15 8 8 13 8-4-20v-3l4 2 12 11 11 9 14 13 9 7 1 3-9 1-58 3 2-4 10-9 5-5-6-2-11-8-7-7-8-12-5-14-2-9v-29l3-16 7-21 12-25 13-19 7-9h2l2-4 14-14 17-13 16-9 15-6 16-4h4l-4-10-5-6v-2h-2l-4-5-8-7-7-6-9-11-6-11-2-5v-15l5-9 7-6 9-4 6-1h19l22 5 17 6 5 2-2-13-1-10h3l4 4v2h2l7 8 11 11 7 8 8 8v2h2l3 4v2l-53-2-14-1v-2l9-6h2v-2l7-5-23-8-14-3-8-1h-9l-12 3-5 3-1 2h-2l-2 7v7l4 10 8 11 10 10 8 7 7 7 7 10 3 9h19l32-2 19-3 15-5 11-6 8-7 7-12 4-12 1-8v-12l-2-16-6-18-8-15-8-10-10-8-10-5-15-5-17-3h-38l-23 3-24 6-24 9-18 8-17 8-19 10-14 9-11 10-8 14-2 7v15l2 7 9 12 6 6v2h2l9 13 4 13-1 11-5 8-2 3h-2v2l-10 7-17 11-8 6h-2v2l-11 9-3 3h-2l-2 4-11 12-1 2h-2l-2 5-7 11-7 15-3 11-1 6v18l3 12 5 12 10 19 8 16 6 21 2 14v25l-3 19-6 20-7 16-10 15-11 13-11 12-5 6h-2l-2 4-10 11-7 11-5 14-4 20-1 11v35l2 24 13 23 8 12 3 3v2l4 2v2l4 2 12 10 14 11 4 3v2l4 2 11 11 9 14 4 12 1 5v20l-3 16-9 31-5 17-2 11v25l5 25 9 25 8 16 10 16 12 14 8 8 14 10 17 9 18 6 14 3 9 1h32l22-3 13-2-5-5v-2h-2v-2l-3-1-6-8 13 1 51 7 3 2-19 14-21 16-11 8-3 1 1-8 4-15-12 3-21 3-12 1h-16l-20-2-18-4-16-6-16-8-16-12-15-15-9-12-9-14-7-15-6-15-6-20-3-16-1-10v-20l-9 13-9 10-15 12-19 10-15 5-13 2-1 1 2 9v16l-4 26-3 17v17l3 12 6 11 3 3v2l4 2 7 6 14 8 14 6 24 8h3l-4-19v-3l4 2 10 9 11 9 15 13 11 9v2l-21 2-30 2h-15l6-7 3-1v-2l6-5 1-2-9-2-23-8-19-9-11-8-3-2v-2h-2l-8-10-7-14-2-9v-23l6-34 1-16-3-16-7-13-6-7v-2h-2l-5-5-9-8-14-8-11-4-4-1h-15l-12 5-7 8-7 13-5 19-2 18v19l3 32 4 32 3 40 5 26 6 17 7 14 8 10 1 3h2v2h2v2h2v2l4 2 10 9 16 10 17 8 14 4 15 2 20-1 21-5 17-6 26-11 31-13 27-9 30-7 24-3h36l19 3 13 5 12 7 13 12 8 11 6 10 7 18 4 15 2 15v29l-3 30-3 27-2 15 19-11 3 1-10 24-13 32-2 5h-2l-12-30-12-29v-3l5 2 16 9 1-21 5-43 1-13v-19l-2-17-4-15-5-13-7-13-10-13-5-4v-2l-4-2-11-6-11-4-20-3h-28l-24 3-24 5-29 9-25 10-27 12-24 9-19 5-15 2h-18l-17-3-15-5-16-8-16-11-14-12-11-12-8-13-6-12-6-20-4-21-3-35-2-21-2-14-3-29v-32l2-16 6-21 7-13 9-10 12-6 10-2 14 1 15 5 14 8 9 7 7 6v2h2l10 13 3 5v2l15-2 14-4 16-8 11-8 11-10 11-15 9-16 10-21 3-8 5-21 1-8v-12l-2-10-5-12-8-10-11-11-14-11-16-13-13-13-12-19-8-14-8-10-8-7-16-8-10-3-14-1-16 3-22 7-9 1 8 14 4 6v2l-9-3-36-14-17-7v-2l18-8 31-13 9-4h3l-2 6-6 10-2 4 19-5 16-5 7-1h15l16 4 11 5 11 7 3 3v-54l3-21 6-18 4-8 10-13 7-8h2l2-4 9-9 7-8 12-15 8-14 5-11 5-16 3-16 1-21-2-18-4-16-7-16-11-21-5-10-4-12-2-11v-12l2-14 5-16 7-13 10-15 9-10 6-7 3-3h2v-2l11-9 13-10 19-12 9-8 3-5v-10l-4-9-7-9-10-11-7-10-3-7-1-5v-16l6-16 8-11 8-8 14-10 27-14 23-11 25-10 24-7 21-4z" fill="#962A85"/>
<path transform="translate(920,18)" d="m0 0h24l16 2 29 7 41 12 55 12 22 6 13 5 13 7 10 7 9 7 7 8 5 6v2h20l18 4 16 6 14 8 12 9v2l4 2 7 7 11 15 8 16 6 16 13 38 8 17 12 18 11 16 13 18 14 21 12 20 8 16 7 17 4 17 1 15-1 10 9 2 19 10 11 9 3 2v2l4 2 9 9 10 13 9 16 6 16 4 20 5 37 4 16 6 15 14 19 9 14 5 10 5 17 1 6v27l-2 12 6 12 3 11v8l-3 12-9 15 11 8 12 12 10 14 9 17 7 21 4 21 1 8v20l-2 12-3 8-5 10-6 7-9 6-12 4-7 1h-20l-14-1h-14l-13 2-13 5-13 9-7 7-7 10-7 14-5 15-3 20v27l6 40v16l-4 14-6 8-8 7-15 7-27 9-47 18-25 9-22 6-22 4-10 1h-19l-15-2-23-5-10-1h-19l-18 3-12 4-15 8-12 11-6 10-2 7v10l4 14 6 16 5 14 3 12v19l-4 13-5 8h-2l-1 3-9 5-9 3-5 1h-21l-24-5-33-11-25-12-19-12-14-11-11-9-2 11-3 11-3-1-24-58 1-3 29 12 31 13 1 2-9 3-12 3v2l2 1v2l4 2 14 11 19 12 15 8 26 10 24 7 10 2 18 1 15-3 8-5 5-6 3-8 1-5-1-17-4-15-8-19-4-13-1-5v-17l4-11 7-9 5-5 8-7 14-8 18-6 14-2h29l17 3 20 4h30l18-3 27-7 25-9 39-15 34-12 12-5 9-7 5-9 1-4v-23l-5-27v-41l3-17 6-18 8-15 6-8h-26l-18-2-16-5-10-5-10-7-9-11-7-14-2-8v-18l4-15 11-25 3-13v-18l-2-4-9 11-6 5v-11l3-49 1-7 3 1 9 11 11 12 4 5v2l3 1 9 11 5 6-1 2-21-4 1 20-2 15-6 17-8 19-3 11v11l4 13 6 11 8 8 10 6 9 4 18 4h30l12-1 4-1 13-8 9-4 12-3h59l13-4 9-8 5-9 4-13v-27l-3-18-5-17-6-15-7-12-10-13-7-7-2-1v-2l-4-2-6-4-5 2-11 7-12 4 5 12 1 4v17l-4 12-6 10-11 12-15 11-10 5h-2l4 5 9 7 4 3v2h-66v-3l8-7 33-33h2l2-4 3-1-2 17v6l14-8 11-8 7-8 6-9 4-13v-9l-3-11-7-10-13-13-2-1v-2l-4-2-9-8-13-10-10-7-10-6-13-6-16-5-13-3-10-1h-17l-20 3-19 5-9 4-14 7-16 10-13 10-7 9-2 4v10l4 6 14 17 10 14 8 16 3 15 1 8v28l-2 19-1 4 20-7 3 1-13 21-10 15-11 18-3 2-4-16-10-48v-2l6 3v2l4 2 8 6h1l2-15 1-23-2-20-3-12-6-12-5-7v-2h-2l-8-11-11-13-3-6-1-4v-9l4-10 7-8 7-7 15-10 16-9 16-8 13-4 19-4 17-2 5-12 1-16-4-17-5-10-8-11-11-8 2 22-4-2-12-12v-2l-4-2-7-8-20-20v-2h32l35 1-1 3-13 9-4 4 11 8 9 10 6 10 5 13 2 11v16l-3 12-1 3 20 3 19 5 21 9 9 6 14 10 11 9 10 8v2l4 2 10 10 2 1v2l4-2 12-3 12-7 5-5 6-8 4-8 1-4v-11l-4-11-6-11-11-14-9-8-8-5-14-4-21-3-12-6-6-7-4-8-6-28-5-16-7-15-3-4-10 19h-2l-5-26-6-33v-7l7 4 16 12 16 11 11 8 4 3v2l-18 1-4 1 9 19 7 21 4 21 4 10 5 5 9 4 26 4 10 4 11 7 13 13 2 3 1-3v-20l-4-18-5-12-7-12-10-13-8-12-6-14-5-22-5-37-5-21-7-16-7-10-7-9-10-11-10-8-16-10-15-6-2 6-7 11-9 9 1 7 4 15 1 6v19l-4 13-7 10-9 8-12 6-13 4-22 3-24 1-12 2-12 5-12 7-12 11-9 12-8 14-5 11-5 17-2 12v25l4-1v-2l8-7 5-4h1l-1 10-10 56-3-1-7-11-10-14-12-18-7-10 1-2 21 7v-20l2-18 5-19 8-18 9-15 12-14 9-8 13-8 12-5 13-3 33-2 13-2 14-4 13-7 7-8 4-8 2-9v-12l-4-18-4-12-9-20-11-19-12-18-15-22-14-21-10-16-10-18-8-17-10-23-9-17-10-13-5-4v-2l-5-2-10-6-14-4-6-1h-18l-10 2 9 9v2l3 1 3 5-19-2-47-7-1-2 17-12 19-14 18-13 1 3-6 20 10-1h24l13 3 13 5 10 7 7 6 9 11 8 13 11 23 9 21 11 21 14 22 13 19 26 39 8 14 8 16 2 2 5-5 6-9 4-10 1-5v-19l-4-16-6-16-10-19-13-21-13-19-13-18-11-16-11-17-8-17-12-36-8-21-6-11-8-11-9-10-11-9-13-8-17-7-20-4-10-1 4 13-1 10-5 8-6 4-6 2-7 1h-13l-30-5-16-1-16 3-10 4-7 6-6 11-6 13 1 5 10 14 13 20 8 14 8 19 5 19 2 13 1 24-2 22-1 7 20 3 13 5 11 7 10 9v2h2l3-10 5-12 2 1 11 38 7 25h-3l-18-10-23-13-15-9 4-2 14-2h5l-4-5-12-9-11-5-7-2h-22l-12 3-12 5-13 7-1 2 9 3 11 5v2l-37 9-28 6 2-5 10-16 9-14 11-17 3-5h2l2 20 1 3 11-7 17-7 14-3 1-12 1-11v-27l-3-20-5-17-8-18-9-15-12-18-9-12-9-11-13-13-13-9-10-6-20-7-20-4-2-1 8 16 2 6-5-1-56-28 1-2 56-18 7-2v3l-8 11-4 6 25 5 21 8 16 10 10 8 8 7 6 7 5-10 6-11 7-8 9-5 10-4 12-2h15l31 5 13 1 12-2 6-5 1-2v-9l-4-9-7-11-13-13-14-9-14-7-18-6-29-7-30-6-68-19-17-3-11-1h-13l-18 2-17 4-15 6-11 6-6 5-6 9-4 12-5 30h-2l-4-19 3-18 4-10 8-11 7-6 15-8 21-7 16-3z" fill="#119D51"/>
<path transform="translate(1498,1327)" d="m0 0h15l10 5 7 8 10 18 8 14 2 4h2l5 5 5 2h11l7-2 4 9 1 4v18l-4 16-7 18-8 16-7 13-10 14-11 13h-2v2l-10 7-3 1h-16l-22-6-13-6v-2l-5-2-6-8-1-6 8-18 8-15 4-6h2l5 17v4h2l3-10 16-38 6-14-31 13-25 11-5 2 21 6v4l-9 15-10 21-2 6v9l6 10 3 4-12 12-11 14-6 11-4 11v37l-3 14-4 9-7 11-9 11-4 5h-2l-2 4-8 7-2-3-5-19-16 35-10 23v2l33-13 26-10 1-1-20-6-1-2 5-5 14-15 12-17 5-10 4-16 1-8v-34l4-9 7-11 12-14 8-8 5 1 15 6 16 4 11 2 3 7 2 13-1 18-5 19-7 17-9 16-10 15-10 13-11 13-3 4h-2l-2 4-34 34h-2v2l-8 7-12 10-14 9-14 7-12 3h-19l-16-4-14-7-10-9-8-14-5-14-1-4v-15l15-9 21-12 11-8 11-10 11-14 8-14 6-14 3-13v-11l-3-11-6-8 1-11 7-26 9-22 9-20 15-30 10-17 16-24 9-13 13-18 9-11 6-7 10-8 12-6z" fill="#FEFEFE"/>
<path transform="translate(148,887)" d="m0 0h15l11 4 10 8 9 13 7 14 10 29 8 19 7 13 8 11 7 8v2l4 2 7 6 7-1 20-6 18-3h7l1 1v7l-23 4-21 6-24 9-18 5-6 1h-20l-16-4-6-3-4 21-2 2-10-19-20-40 3-1 36 12 25 9-2 2-17 6-1 1 11 4 6 1h13l16-3 15-5h3l-7-8-8-8-11-16-10-19-9-25-7-19-7-14-7-9-9-6-6-2h-10l-8 3-9 6-8 10-6 10-7 21-5 22-9 64-5 37-6 58-3 55v42l2 38 5 40 6 31 7 27 9 27 10 25 9 20 11 24 8 15 9 19 15 30 15 33 16 35 8 17 9 15 9 11 7 7 16 12 23 14 19 12 17 10 23 13 28 14 25 10 17 6 26 6 26 4 21 2 39 1 19 1 16 4 12 7 7 7 7 12 8 16 8 11 11 10 16 10 20 8 19 5 22 3 27 1-10-14-3-4v-2l10 2 54 16v2l-27 14-9 5-22 12-1-3 9-20-8 1-25-1-20-3-20-5-21-9-14-9-10-8-7-7-7-10-8-16-7-12-8-7-12-5-10-2-43-1-29-2-28-4-30-7-26-9-17-7-16-8-27-14-20-12-23-14-21-13-3-2v9l4 15 6 16 10 19 10 13 3 3v2l4 2 10 8 13 8 16 8 22 12 10 7 13 11 9 9 7 8 10 12 8 7 9 7 17 10 48 23 14 8 20 14 26 20 18 12 18 11 23 12 20 8 21 7 23 6 22 4 20 2h23l22-3 20-6 14-7 9-7 10-14 5-12 3-11 1-12v-12l-2-16-2-4-19 19-13 9-12 7-17 7-21 5-16 2h-20l-20-3-19-5-20-9-18-10-14-9-20-14-18-13-27-18-16-9-19-9-12-4 6 20v3l-4-2-13-9v-2l-5-2-13-10-18-13-2-3 48-7 13-2h6l-2 4-13 13 4 2 15 6 16 8 16 9 15 10 17 12 18 13 24 16 21 12 19 8 13 4 18 3h28l19-3 18-6 17-8 14-10 12-11 10-11 8-14 4-12 2-11v-28h-2l-2 4-8 8-7 3-5 1h-9l-10-3-10-6-7-8-5-10-3-11-5-37-3-9-8 19h-3l-11-40-6-21v-3l5 2 10 6 11 6 24 14 9 5-1 2-22 3 3 9 3 15 3 26 5 16 9 10 8 4 3 1h12l8-5 6-7 4-8 4-16 5-27 1-10v-30l-3-21-5-13-7-9-7-6-15-7-13-3-11-1h-24l-21 2-36 6-17 4-19 7-13 7-10 8-8 11-4 10-2 9v12l3 11 5 8 10 7 29 12 8 4 3-24h2l14 25 15 25 4 7v2l-9-2-31-8-21-6-4-1v-2l19-8 1-1-21-9-12-5-11-7-8-9-3-6-2-10v-19l3-12 5-10 7-9 7-7 11-7 10-5-3-4-5-11-7-10-12-9-11-5-13-4-17-2-17 1-20 4-20 6-9 2h-21l-16-4-16-8-11-7-13-10-13-12-9-9-11-16-5-10-14 13-4 2 1-11 11-55 3 1 12 19 18 27 5 7v2l-9-2-13-5 6 12 7 9 9 10 12 11 18 13 14 8 16 5 6 1h13l20-5 17-5 19-3h21l17 3 17 6 15 10 7 7 7 11 4 9 1 5 23-7 27-5 30-4 16-1h12l20 2 18 5 10 5v2l5 2 5 4 6 8 6 12 4 16 2 20v18l-3 24-5 29-1 3v8l2 11 1 21-2 16-4 13-6 12 4 17 1 7v27l-3 16-5 12-5 9-8 10-9 8-15 8-15 5-19 4-8 1h-37l-28-4-25-6-29-9-21-9-16-8-11-6-16-10-13-9-16-12-19-14-14-10-16-9-28-13-21-10-17-11-9-7v-2l-4-2-12-13-7-8-12-12-10-9-11-7-11-6-16-8-21-12-9-7-3-2v-2l-4-2v-2h-2v-2h-2l-12-17-7-12-8-19-5-18-2-21-9-7-10-10-10-14-10-18-9-20-5-11-12-26-13-28-14-29-24-48-4-9-9-21-10-26-6-18-8-30-6-31-4-29-2-22-1-18v-66l3-46 5-49 8-61 8-54 6-24 7-18 11-16 9-8 12-6z" fill="#642F87"/>
<path transform="translate(843,516)" d="m0 0 1 4-6 20-4 11-4 17v16l3 18 14 49 3 15 2 22v16l-2 23-5 28-11 44-7 30-5 31-2 20v45l3 21 4 15 8 16 5 6v2l4 2 7 6 4-1 12-13 7-7 13-10 22-15 11-8 12-11 8-9 7-14 2-7 1-15-3-28v-30l3-22 5-29 6-16 9-14 13-17 9-17 4-12 1-5v-11l-3-12-5-9-5-7-11-9-13-8-14-6-24-7h-2l8 21-2 1-56-35 1-2 59-13h6l-6 8-8 10 27 8 16 7 14 9 10 8 8 10 7 14 2 8v18l-3 12-7 16-11 16-10 13-7 12-3 10v17l4 13 7 10 8 7 12 5 9 2 9 1 34 1 18 3 9 4 9 7 8 9 4 6 10-18 1-2h2l10 64v3l-4-2-15-11-16-12-19-14-1-2 24-1-9-12-7-6-8-4-11-2-13-1-31-1-16-3-12-5-8-6-7-7-7-12-3 26v16l3 28v18l-3 14-8 16-10 12h-2v2l-11 9-18 13-15 10-16 13-9 9-11 14-9 14-9 19-6 19-2 12v26l4 15 8 17 9 11 8 7 14 7 7 2 8 1h9l13-2 14-4 20-9 19-12 18-14 13-11 18-13 16-11 15-10 19-11 16-8 16-7 18-4 9-1h13l15 2 15 4 18 8 15 8 6 4v-17l1-8 4 5 14 20 11 16 9 13-1 3-61-12-4-2 19-10h2v-2l-5-2-23-12-22-7-6-1h-26l-18 4-17 7-22 12-19 12-22 15-18 13-9 8h-2v2l-16 12-6 4-1 2 5 2 9 7 10 9 9 11 10 15 5 10h2l9-11 5-6h1v15l-2 48-1 5-13-13v-2h-2l-7-8-2-4h-2l-7-8-9-10-3-3v-2l10 1 12 2-7-14-8-11-7-8v-2l-3-1-5-5-12-9-5-3-5 2-16 8-12 5-15 4-5 1h-21l-13-3-16-8-12-11-2-3-1 2-2 21-2 53v88l3 52 3 15 7 14 7 6 18 10 19 8 17 9 12 9 9 10 5 8 5 13 2 10 1 26 20-9h2l-2 5-12 22-8 16-9 16h-2l-9-29-9-31 1-4 17 12 2 1-1-21-4-17-5-10-9-10-8-7-11-7-11-5-19-8-13-7-9-7v-2l-3-1-6-9-4-11-2-11-3-44v-116l2-40 3-24 1-7-7-15-4-16-1-18 1-14 5-22 8-20 9-16 5-7-5-2-10-9-9-13-7-16-5-23-2-22v-22l2-32-9 20-8 15-10 15-12 14-10 9-11 7-11 5-16 4h-21l-18-3-19-7-16-9-10-9-9-14-5-15-2-11v-23l4-16 8-15 9-12 14-19 10-16 5-13 1-4v-18l-5-14-8-11-7-7-2-1v-2l-4-2-16-9-14-6-20-6 8 21-1 2-44-26-13-8 1-2 62-15 3 1-9 11-5 7 20 6 15 6 16 9 11 9 8 8 7 11 5 11 2 12-1 16-4 12-9 17-12 17-14 18-6 11-5 13-1 8v16l3 16 5 12 8 11 12 9 15 7 17 5 12 2h14l11-2 14-5 14-9 9-8 1-2h2l2-4 10-13 10-18 8-17 8-21 9-27 9-32 4-11 7-30 4-27v-39l-3-19-8-29-6-21-4-20v-23l4-17 7-19z" fill="#165491"/>
<path transform="translate(920,18)" d="m0 0h24l16 2 29 7 41 12 55 12 22 6 13 5 13 7 10 7 9 7 7 8 5 6v2h20l18 4 16 6 14 8 12 9v2l4 2 7 7 11 15 8 16 6 16 13 38 8 17 12 18 11 16 13 18 14 21 12 20 8 16 7 17 4 17 1 15-1 10-2 7 2 1h-3l-2 6-7 11-9 9 1 7 4 15 1 6v19l-4 13-7 10-9 8-12 6-13 4-22 3-24 1-12 2-12 5-12 7-12 11-9 12-8 14-5 11-5 17-2 12v25l4-1v-2l8-7 5-4h1l-1 10-10 56-3-1-7-11-10-14-12-18-7-10 1-2 21 7v-20l2-18 5-19 8-18 9-15 12-14 9-8 13-8 12-5 13-3 33-2 13-2 14-4 13-7 7-8 4-8 2-9v-12l-4-18-4-12-9-20-11-19-12-18-15-22-14-21-10-16-10-18-8-17-10-23-9-17-10-13-5-4v-2l-5-2-10-6-14-4-6-1h-18l-10 2 9 9v2l3 1 3 5-19-2-47-7-1-2 17-12 19-14 18-13 1 3-6 20 10-1h24l13 3 13 5 10 7 7 6 9 11 8 13 11 23 9 21 11 21 14 22 13 19 26 39 8 14 8 16 2 2 5-5 6-9 4-10 1-5v-19l-4-16-6-16-10-19-13-21-13-19-13-18-11-16-11-17-8-17-12-36-8-21-6-11-8-11-9-10-11-9-13-8-17-7-20-4-10-1 4 13-1 10-5 8-6 4-6 2-7 1h-13l-30-5-16-1-16 3-10 4-7 6-6 11-6 13 1 5 10 14 13 20 8 14 8 19 5 19 2 13 1 24-2 22-1 7 20 3 13 5 11 7 10 9v2h2l3-10 5-12 2 1 11 38 7 25h-3l-18-10-23-13-15-9 4-2 14-2h5l-4-5-12-9-11-5-7-2h-22l-12 3-12 5-13 7-1 2 9 3 11 5v2l-37 9-28 6 2-5 10-16 9-14 11-17 3-5h2l2 20 1 3 11-7 17-7 14-3 1-12 1-11v-27l-3-20-5-17-8-18-9-15-12-18-9-12-9-11-13-13-13-9-10-6-20-7-20-4-2-1 8 16 2 6-5-1-56-28 1-2 56-18 7-2v3l-8 11-4 6 25 5 21 8 16 10 10 8 8 7 6 7 5-10 6-11 7-8 9-5 10-4 12-2h15l31 5 13 1 12-2 6-5 1-2v-9l-4-9-7-11-13-13-14-9-14-7-18-6-29-7-30-6-68-19-17-3-11-1h-13l-18 2-17 4-15 6-11 6-6 5-6 9-4 12-5 30h-2l-4-19 3-18 4-10 8-11 7-6 15-8 21-7 16-3z" fill="#047898"/>
<path transform="translate(342,632)" d="m0 0h3l-2 6-6 10-2 4 19-5 16-5 7-1h15l16 4 11 5 11 7 6 5 2 5h2l7 10 10 18 8 12 3 3v2l4 2v2l4 2 12 10 14 11 4 3v2l4 2 11 11 9 14 4 12 1 5v20l-3 16-9 31-5 17-2 11v25l5 25 9 25 8 16 10 16 12 14 8 8 14 10 17 9 18 6 14 3 9 1h32l22-3 13-2-5-5v-2h-2v-2l-3-1-6-8 13 1 51 7 3 2-19 14-21 16-11 8-3 1 1-8 4-15-12 3-21 3-12 1h-16l-20-2-18-4-16-6-16-8-16-12-15-15-9-12-9-14-7-15-6-15-6-20-3-16-1-10v-20l-9 13-9 10-15 12-19 10-15 5-13 2-1 1 2 9v16l-4 26-3 17v17l3 12 6 11 3 3v2l4 2 7 6 14 8 14 6 24 8h3l-4-19v-3l4 2 10 9 11 9 15 13 11 9v2l-21 2-30 2h-15l6-7 3-1v-2l6-5 1-2-9-2-23-8-19-9-11-8-3-2v-2h-2l-8-10-7-14-2-9v-23l6-34 1-16-3-16-7-13-6-7v-2h-2l-5-5-9-8-14-8-11-4-4-1h-15l-12 5-7 8-7 13-5 19-2 18v19l3 32 4 32 3 40 5 26 6 17 7 14 8 10 1 3h2v2h2v2h2v2l4 2 10 9 16 10 17 8 14 4 15 2 20-1 21-5 17-6 26-11 31-13 27-9 30-7 24-3h36l19 3 13 5 12 7 13 12 8 11 6 10 7 18 4 15 2 15v29l-3 30-3 27-2 15 19-11 3 1-10 24-13 32-2 5h-2l-12-30-12-29v-3l5 2 16 9 1-21 5-43 1-13v-19l-2-17-4-15-5-13-7-13-10-13-5-4v-2l-4-2-11-6-11-4-20-3h-28l-24 3-24 5-29 9-25 10-27 12-24 9-19 5-15 2h-18l-17-3-15-5-16-8-16-11-14-12-11-12-8-13-6-12-6-20-4-21-3-35-2-21-2-14-3-29v-32l2-16 6-21 7-13 9-10 12-6 10-2 14 1 15 5 14 8 9 7 7 6v2h2l10 13 3 5v2l15-2 14-4 16-8 11-8 11-10 11-15 9-16 10-21 3-8 5-21 1-8v-12l-2-10-5-12-8-10-11-11-14-11-16-13-13-13-12-19-8-14-8-10-8-7-16-8-10-3-14-1-16 3-22 7-9 1 8 14 4 6v2l-9-3-36-14-17-7v-2l18-8 31-13z" fill="#DE2A74"/>
<path transform="translate(545,106)" d="m0 0 4 1 1 1-1 7-6 2-16 4-17 6-14 7-13 9-11 9-32 32h-2v2l-11 8-21 14-11 9-6 7-5 9-5 13-9 26-7 13-9 12-7 7-7 8-9 8-5 5-11 12-11 16-9 17-10 25-12 32-5 19-3 17v33l2 11 7-1 10-5 30-11 27-9 11-5 16-8 6-4h3v-2l13-9 7-6h2l2-4 5-5h2l2-4 8-10 2-5h-19v-4l11-9 28-21 9-7 4 2-2 19-5 33-2 11-4-1-6-10-3-6-5 5-9 11-15 15-13 10-14 9-14 8-25 10-21 7-20 7-15 6-16 9-14 11-10 10h-2l-2 4-11 13-11 18-10 21-5 15-6 25-2 17v26l2 21 3 17v22l-1 9-6 15-10 14-10 13-5 9-2 8 10-1h9l14 3 23 11 8 4 7 2h14l9-3 11-8 3-3h2l2-5 7-8 5-7h2l2-4 9-9 11-7 11-4 11-3 14-2-8-3-18-4-20-4-20-9-13-8-11-11-6-10-4-8-5-18-1-7v-23l3-18 4-15 7-17 7-11 8-10 12-12 10-7 10-6 17-6 18-4 9-1 1-2-9-14 1-4 11 3 12 4 35 12 3 2-1 3-16 8-40 19h-2l-1-3 7-14 1-4-25 5-19 7-11 7-11 9-8 9-9 14-5 11-5 14-3 15-1 13v11l2 14 5 15 6 11 9 9 10 7 14 7 11 4 31 6 18 6 19 9 21 14 15 13 10 9 4 4h2l6-18 4 1 10 26 12 32-4 2-35-16-20-9-1-3 5-3 13-3-2-4-8-8-8-7-16-13-9-5-1-1-8-1h-19l-14 2-17 5-12 9-5 6-5 5-12 14-7 8-11 8-8 4-9 2h-12l-14-4-26-13-11-3h-15l-11 4-12 8-9 13-6 15-2 12v9l2 14-3 5-5 1-3-8-1-8v-18l4-16 4-10 10-14 9-8 6-4 3-16 5-10 18-24 5-9 3-10v-30l-4-27v-37l3-22 6-22 8-22 12-22 7-10 6-8 12-13 10-10 12-9-1-9-2-20v-16l2-17 4-18 6-20 13-34 10-23 12-20 11-13 29-29 7-8 9-13 4-9 11-32 7-14 4-6h2l2-4 9-8 15-10 13-9 9-7 11-11 6-5 7-8 11-10 5-5 10-7 9-6 17-8 21-7z" fill="#F8CA28"/>
<path transform="translate(1585,1377)" d="m0 0 3 1 4 9 2 17-2 16-6 20-9 20-11 20-11 15-12 14-9 7-9 4 3 18v16l-3 17-6 17-6 13-7 13-9 14-12 16-12 14-12 13-30 30h-2v2l-8 7-12 10-15 10-4 1-3 14-6 14-8 12-11 13h-2l-1 3-11 9-13 10-15 9-16 9-32 16-24 11-28 10-10 16-10 13-11 12-7 7-11 9-11 8-19 12-26 12-15 6-25 8-38 9-29 5-24 2h-18l-20-2-21-5-15-6-16-10-12-11-7-9-5-13-2-12v-72l1-12 5 3 3 4v71l2 15 4 11 6 8 10 9 13 8 11 5 16 5 19 3h36l24-3 26-5 28-7 36-12 22-10 16-9 16-11 10-8 12-11 10-11 9-12 4-6-27 5-8 1h-30l-37-4h-29l-15 3-19 7-19 9-24 14-6 4 20 11-3 2-58 11h-5l4-7 28-40 6-8h1l2 23 28-17 25-12 21-7 10-2 12-1h12l51 5h21l21-3 21-5 30-10 25-11 25-12 19-10 21-13 12-9h2v-2l8-7 12-12 10-16 6-16-8 3-12 2-18-1-16-4-16-8-11-10-8-12-7-19-1-4v-12l4-3 4-1 1 13 5 16 7 13 8 9 14 8 13 4 6 1h19l14-4 16-8 16-12 12-11h2v-2l8-7 29-29 1-2h2l2-4 9-10 10-13 10-15 8-14 7-14 6-18 2-9 1-18-3-16-1-3-19-4-16-5-9-4-4 1-10 10-11 14-6 10-2 6v34l-3 18-5 12-9 14-8 10-14 15h-2v3l20 6 1 2-56 22-6 2v-3l12-27 14-31 2-1 5 20 1 2 8-7 2-3h2l2-4 7-8 7-10 6-11 3-10 1-7v-37l5-14 8-12 12-14 8-8-6-8-3-6v-9l7-17 10-19 5-7v-2l-22-6 1-2 37-16 21-9h3l-3 9-15 36-7 17h-2l-5-18v-3l-3 3-7 12-9 19-2 5 1 6 6 8 4 2v2l6 2 13 5 16 4h16l8-4 3-3h2v-2l5-5 8-9 7-10 8-14 8-16 6-14 5-16 1-6v-18l-3-10-1-4z" fill="#069087"/>
<path transform="translate(1159,280)" d="m0 0 8 1 12 5 26 10 16 6 1 2-13 5-8 3 4 5 7 10 7 14 5 16 2 11v20l-3 16-4 12-2 4 18-2h10l13 2 13 5 8 5 9 6 15 15 2 1 3-10 5-10 2 1 8 26 7 26 2 11-9-3-9-6-9-5-20-11-11-7v-2l17-3h4l-3-5-4-4v-2l-4-2-5-5-9-5-8-4-8-3h-31l-12 2-8 11-11 11h-2l-1 3-16 11-5 3h-2l5 15 2 11v16l-3 19-7 21-9 19-8 13-12 19-16 24-7 11-12 21-7 16-5 14-3 20 1 13 2 8 3 7 8 11 2 4 4 2 11 7 13 8 20 12 14 9 11 9 7 7 10 13 8 16 5 12 2 10v28l-5 17-8 16-7 10-7 7-10 7-5 2v2l13 2 17 6 16 9 12 9 11 9 17 9 12 4 7 1h22l9-2v-2l-15-11v-2l44-3h23l-2 1-2 5-11 11-9 11-16 17-5 4-1-7 1-15-16 3-14 1-18-3-15-5-15-8-18-14-14-9-14-7-22-5-12-1h-14l-54 7-24 6-23 10-6 4-7 4-10 7-9 7h-2v2l-9 7-8 8h-2v2l-7 6-7 8-4 5 19 4 3 2-4 3-24 11-5 3-24 12h-3l1-8 16-46 4-9 3 4 5 15 4-1 10-10 7-8 8-7 13-11 11-8 16-11 17-9 16-6 19-5 20-3 27-3 5-2 12-1 16-5 11-6 10-8 8-10 7-13 5-19 1-10-1-14-3-12-7-15-9-14-10-11-4-3v-2l-5-2-10-7-15-9-19-11-11-8-10-8-8-10-6-12-3-11-1-6v-13l4-20 4-12 7-15 8-15 6-10 15-23 13-20 10-16 5-9 6-12 7-19 2-8 2-13v-13l-3-16-5-13-7-11-9-10-11-7-11-4h-21l-9 2-10 3 1 4 13 11v2h-16l-47-2-4-2h2l2-4 12-11 15-14 11-9 7-6h1v7l-2 15 18-5 5-1h25l12 5 10 6 11 10 9 12 10-5 13-10 11-11 2-3h2l2-5 8-16 5-16 1-8v-17l-2-12-5-15-8-15-5-6v-2l-3 1-4 16-2 4-9-17-8-18-7-15-4-10z" fill="#EF7236"/>
<path transform="translate(148,887)" d="m0 0h15l11 4 10 8 9 13 7 14 10 29 8 19 7 13 8 11 7 8v2l4 2 7 6 7-1 20-6 18-3h7l1 1v7l-23 4-21 6-24 9-18 5-6 1h-20l-16-4-6-3-4 21-2 2-10-19-20-40 3-1 36 12 25 9-2 2-17 6-1 1 11 4 6 1h13l16-3 15-5h3l-7-8-8-8-11-16-10-19-9-25-7-19-7-14-7-9-9-6-6-2h-10l-8 3-9 6-8 10-6 10-7 21-5 22-9 64-5 37-6 58-3 55v42l2 38 5 40 6 31 7 27 9 27 10 25 9 20 11 24 8 15 9 19 15 30 15 33 16 35 8 17 9 15 9 11 7 7 16 12 23 14 19 12 17 10 23 13 28 14 25 10 17 6 26 6 26 4 21 2 39 1 19 1 16 4 12 7 7 7 7 12 8 16 8 11 11 10 16 10 20 8 19 5 22 3 27 1-10-14-3-4v-2l10 2 54 16v2l-27 14-9 5-22 12-1-3 9-20-8 1-25-1-20-3-20-5-21-9-14-9-10-8-7-7-7-10-8-16-7-12-8-7-12-5-10-2-43-1-29-2-28-4-30-7-26-9-17-7-16-8-27-14-20-12-23-14-21-13-11-6-2 1-1-5-9-7-10-10-10-14-10-18-9-20-5-11-12-26-13-28-14-29-24-48-4-9-9-21-10-26-6-18-8-30-6-31-4-29-2-22-1-18v-66l3-46 5-49 8-61 8-54 6-24 7-18 11-16 9-8 12-6z" fill="#047898"/>
<path transform="translate(1465,944)" d="m0 0 10 5 18 11 15 9 14 9-4 2-18 2 3 7 8 17 6 21v7l3 7 3 31 1 16v13l-2 17-4 12-5 8-7 7-12 7-16 6-24 7-16 8-12 8-9 8-2 3h-2l-2 4-7 10-6 10-8 19-12 31-10 23-6 12-12 19-9 10-5 5-14 5-18 1-20-3-20-6-20-8-28-14-4-1-2 15-3 12-5 11-4 3-3 7-12 10-15 5-30 6-26 8-25 10-8 4 3 11 3 12v13l-4 12-7 11h-2l-2 4-7 7-8 10h-2l-2 4-10 14-8 14v4l20-1-2 4-3 1-2 4-4 4h-2v2l-8 7-14 14h-2l-2 4-7 6h-2l1-45 1-21 5 5 8 10v2h4l1-4 9-16 15-20h2l2-4 8-8 10-13 4-9 1-4v-10l-5-16-6-11-7-8-5-4-11-5-18-3-23-2-18-4-40-14h-5l4 20-5-2-16-13-11-9-16-13-3-3v-2l62-6h3l-2 4-11 11h-2v3l10 3 13 4 12 5 16 5 21 3 22 2 12 3 13 7 10 9 2 3 6-1 20-9 27-9 25-6 20-4 9-4 8-6 6-8 6-13 3-16v-22l-3-17-5-10v-2h-2l-5-7-3-2v-2l-4-2-10-7-2-1-2 22-4-2-5-9-14-20-8-12-7-11 3-1 25 5 34 7 3 2-18 10 1 3 11 8 5 4 11 14 5 12 3 16 2 7 33 17 8 3 18 7 19 5 5 1h24l11-4 6-5 12-17 10-18 10-23 11-29 9-21 6-11 2-3v-5l-10-3-6-3-17-4h-20l-10 3-11 6-8 6-4 4 4 2 16 3v2l-23 12-20 10-12 7-4-1 12-36 9-26 3 4 5 15 2 2 7-6h2v-2l17-10 12-4 11-1 19 2 18 5 12 6h5l14-14 10-7 10-6 18-7 26-8 9-4 10-6 1-2h2l2-4 4-10 2-11v-32l-3-32-4-21-6-18-7-14v-2l-5 1-1 5-5 12h-2l-7-25-7-28z" fill="#9FCB47"/>
<path transform="translate(239,1092)" d="m0 0h4l-2 5-10 18-8 13-13 22-2-1-3-21-7 8-6 11-2 9 1 12 6 12 9 10 12 12 6 4v2l5 2 15 11 20 12 24 11 20 7 36 12 21 9 16 8 14 9 14 11 13 13 7 10 8 16 4 12h2l12-19 12-17 10-13 11-13 6-7h2l2-4 6-6h2v-2l7-6h2l1-3 19-13 10-6 11-5 15-4 5-1h26l15 4 17 7v-19l2-4 9 12 13 19 7 10 8 12v3l-62-12-3-1v-2l19-10-8-4-11-4-11-2h-17l-17 4-12 5-16 9-13 10-10 8-4 5h-2v2l-12 12-9 11-16 21-7 11-9 14-8 14 3 38 1 25 3 18 5 16 7 13v3h2l10 16 10 11 7 8 3 2 1-8 4-14 3 3 18 41 6 14v4l-6-2-22-9-20-8-14-6 1-2 18-5h3l-6-8-7-7-13-18-6-9-9-19-5-16-2-13-3-53-4-24-6-18-7-13-10-13-7-7-16-12-11-7-23-11-24-9-36-12-16-6-16-8-14-8-15-10-4 2-13 14-12 16-8 14-5 10-6 18-2 12v14l2 12 6 12 11 14 16 17 12 13 9 11 8 10 2 1 3-9 6-12 2 3 14 61v2l-4-1-22-14-17-11-11-7-3-2v-2l19-2 3-1-10-13-12-14-14-15-9-10-9-11-6-10-4-11-1-6v-25l5-19 5-13 8-15 8-12 11-13 4-5h2l2-4 4-5-5-5-13-11-8-8-9-12-4-8-2-6v-16l5-15 8-11 5-6-12-6-9-4 2-2 40-11z" fill="#EC2E6E"/>
<path transform="translate(255,1290)" d="m0 0h33l-4 5-11 8-1 3 16 10 10 9 7 11 4 11 2 18 4 35 6 26 9 27 2 2h2l2-5 11-14 13-12-5-5-12-7v-2l11-2 49-6h5l-2 5-11 13-10 13-13 16-5 5-1-1v-20l-7 4-4 5h-2l-2 4-8 10-9 17-6 17-4 18-1 7v25l5 25 6 16 6 12v2h2l4 8 8 10 11 11 11 9 15 10 22 12 40 20 16 7 14 4 5 1h16l13-4 4-1-1-3-18-6 3-3 21-8 25-10 11-4h2l-2 6-9 20-7 16-7 15-2 3h-2l-4-17-1-4-15 7-9 2h-22l-20-6-16-7-19-10-21-10-13-7-21-13-22-18-9-11-15-4-14-6-15-10-13-11-8-7-6-5-6-7-13-13-9-11-10-12-12-16-3-3-3 1-3 9-5 9-2-4-5-21-8-40 6 2 24 16 17 11 8 5v3l-11 1-8 1v3l6 9 14 18 12 14 12 13 12 12 9 7 12 10 13 8 11 5 4 1-8-16-6-16-4-15-2-13v-30l3-16 6-20 2-5v-6l-7-17-6-19-5-22-3-18-3-36-4-13-6-9-1-3h-2v-2l-4-2-13-8-4-1 3 20-1 2-8-7-16-15-5-4-18-18v-2z" fill="#9FCB47"/>
<path transform="translate(612,1320)" d="m0 0 4 1 6 12 10 22 7 14 2 9h-4l-15-7 3 11 8 15 7 9v2l4 2 9 9 14 10 9 5 16 8 12 5 19 5 17 3h32l19-4 13-5 12-7 7-7 8-14 3-10 2-19 3-2 6 7 1 6-4 18-5 12-3 5 1 7 5 13 6 23 7 37 1 8v45l-1 31-1 8h-2l-1 11-5 12-6 10-7 8-5 4-5-1-3-4 1-3h2v-2h2v-2l5-5 4-5 7-14 3-13 2-51v-16l-2-25-5-27-7-27-5-11-5 3-17 9-17 5-11 2-15 1 1 10 1 8v19l-4 20-6 16-6 9-7 9-11 7-13 4h-17l-15-4-16-6-19-10-14-9-8-6-2-1v-2l-4-2-15-13-13-13-7-8-9-11-11-17-11-18-8-12-4-4h-2l-4 17-3 1-12-23-8-16-8-18 1-2 7 1 40 14 13 5v4l-17 6 1 4 10 13 7 11 11 18 6 9v2h2l8 11 5 5v2l4 2 17 17 4 3v2l5 2 12 9 16 10 21 10 18 6 5 1h11l13-4 10-9 6-9 4-8 5-16 1-5v-28l-3-13-17-2-16-3-27-9-16-8-15-9-13-10-11-11v-2h-2l-7-10-6-10-4-10-3-10-4 1-12 8h-3l1-8 13-38 5-14z" fill="#F8CA28"/>
<path transform="translate(878,195)" d="m0 0h10l21 3 18 7 10 6 14 10 9 9 5 6 8 13 4 10 2 8 1 9v17l-2 17-5 24-7 31-3 23v16l2 18 4 15 7 20 4 8 6 13 4 14 1 10v14l-2 13-3 10-4 10-10 16 14 3h20l20-6 17-9 10-8 8-7v-2l-18-5v-3l15-7 17-7 10-5 11-5 7-1-4 13-6 14-5 14-5 12-4 9-2-1-6-20-7 5h-2l-1 3-14 10-16 9-15 5-8 2h-24l-15-4-11-5-14-7-13-8v-2l-5-2-7-6v-2h-2l-7-8-7-11-7-16-4-16-3-21-1-10v-94l-20 10-1-2 11-26 9-20 7-14 2 2 3 7 8 21 10 27 1 6-6-2v-2l-5-1-7-5-3-1v72l3 41 4 20 7 18 7 12 11 11 12 9 19 10h4l11-18 4-13 2-11v-18l-4-16-4-9-9-20-7-22-3-17v-39l3-18 2-6 3-14 4-17 4-29v-19l-3-12-5-12-9-12-9-9-13-9-16-8-8-3-16-3h-13l-16 3-11 6-7 6-2 3h-4l-1-10 13-10 10-5 8-2z" fill="#EF7236"/>
<path transform="translate(843,516)" d="m0 0 1 4-6 20-4 11-4 17v16l3 18 14 49 3 15 2 22v16l-2 23-5 28-11 44-7 30-5 31-2 20v45l3 21 4 15 8 16 5 6v2l4 2 7 6 3 2h-2l-2 6-2 1-8-6-7-6-9-13-7-16-5-23-2-22v-22l2-32-9 20-8 15-10 15-12 14-10 9-11 7-11 5-16 4h-21l-18-3-19-7-16-9-10-9-9-14-5-15-2-11v-23l4-16 8-15 9-12 14-19 10-16 5-13 1-4v-18l-5-14-8-11-7-7-2-1v-2l-4-2-16-9-14-6-20-6 8 21-1 2-44-26-13-8 1-2 62-15 3 1-9 11-5 7 20 6 15 6 16 9 11 9 8 8 7 11 5 11 2 12-1 16-4 12-9 17-12 17-14 18-6 11-5 13-1 8v16l3 16 5 12 8 11 12 9 15 7 17 5 12 2h14l11-2 14-5 14-9 9-8 1-2h2l2-4 10-13 10-18 8-17 8-21 9-27 9-32 4-11 7-30 4-27v-39l-3-19-8-29-6-21-4-20v-23l4-17 7-19z" fill="#047898"/>
<path transform="translate(513,156)" d="m0 0 2 2v33l-1 32-4-2-9-11-1-2-4-1-2 5-10 11-4 1-2 4-15 10-16 10-8 8-7 10-5 9-10 21-14 36-9 19-10 16-12 16-12 13-6 7h-2l-2 6 17 6v4l-52 20-2 1h-6l-1-2 5-11 7-16 7-15 8-16 3 2 4 16v2l5-3 10-10 7-9 7-8 7-10 8-13 8-16 8-20 7-18 7-17 8-14 8-11 9-10 8-6 15-9 14-10 8-8 3-6-13 2h-6l-1-3 16-16 4-5 8-7 14-14z" fill="#F8CB28"/>
<path transform="translate(1202,1346)" d="m0 0 7 6 9 9 7 8 11 12 8 10 9 11 10 14v2l-3-1-4-7-2-1-4-7-8-9-5-7-6-5-4-6-8-7-3-5-8-9-4-3v-2h-3l-1 5 8 6 2 4 7 6 3 5 3 2v2l4 2 4 6 4 4 4 5v2l3 1 4 6 3 2 3 6 7 8 5 10 6 10 2 6 2 1v3l2 1 3 9 2 3v5l-2-1-8-20-11-19-14-20-11-13-9-11-9-10-1-3h-2l-7-8-2-4-4-2-4-4 1-5z" fill="#EC3764"/>
<path transform="translate(1544,1026)" d="m0 0h13l9 2 7 2 5 5 6 7 3 5 4 22 3 9 5 12 8 14 4 4 2 5 7 10 9 16 1 5h2l3 13 1 2 1 19-2 29-3-1 2-18v-20l-3-16-6-15-8-14-10-15-10-16-7-16-3-15-3-14-4-6-9-8-11-4h-18l-13 4-5 2 2-4 13-4z" fill="#EC3765"/>
<path transform="translate(882,1663)" d="m0 0 1 3-5 8-6 14-3 16v92l3 15 5 9 11 13 10 8 14 7 16 3h8l8-1 1 2-4 1h-22l-11-3-5-3-13-9-6-5-7-9-4-5v-2h-2l-3-6-1-10-1-90 2-20 8-20 4-6z" fill="#EC326A"/>
<path transform="translate(1443,1255)" d="m0 0 2 1-8 13-4 8h-2l-3 9-5 10-4 10h-2l3-9 12-25 10-16zm-27 51h1v6l-6 12-10 17-1 3h-2l-2 4-11 14h-2v2h-2l-2 4-8 8-2 4-4 2-5 5-12 11-3 1 2-4 20-18 12-12 9-11 8-10 10-16z" fill="#EC3666"/>
<path transform="translate(1483,1323)" d="m0 0v3l-11 7-7 8-8 8-1 3-5 5-7 10-2 4-4 4-6 10-7 9v2l-4 4-18 30-2 5h-2l-1 5-9 17-2-1 14-28 13-22 16-24h2l2-5 13-19 10-13h2l2-4 10-10 10-7z" fill="#EC3765"/>
<path transform="translate(1220,1791)" d="m0 0 4 1 2 13 1 5 1-3h2l2-5 2 2-8 11-2 1-2-23-19 11-22 10-21 6-8 1h-16l-14-3-10-4 4-1 5 1v2l4-1 3 2 5 1h23l12-3 18-6 5-3 6-2 22-12z" fill="#EC3A62"/>
<path transform="translate(1158,1621)" d="m0 0 2 1-5 5h-2v3l-5 3-1 3h-2l-1 2-3 3-1 3h-2l-2 4-3 5h-3l-2 5h-4l-4-7v-3h-2l-2-4-2 5-4 17-4 16-2 10-1 3 4 2v2l-5 3h-2l1-9 6-26 7-31h2l9 19h2l7-9 9-11 10-10z" fill="#EB306B"/>
<path transform="translate(1174,1486)" d="m0 0 1 2-5 5-2 4-5 4-5 6-19 19-7 6-5 5-3 1v2l-7 6-4 3h-2v2h-3l-1 3-7 5h-2l-1 3-6 3-5 4-11 6-9 5-11 4h-2v-2l16-7 18-10 14-10 4-3h2v-2l8-6 9-8h2v-2l8-7 3-3h2v-2h2v-2l8-7 14-15 9-11z" fill="#EC3864"/>
<path transform="translate(1e3 1684)" d="m0 0 4 1 1 1 2 14 4 9 4 7 11 11 10 6 8 4-1 2-14-7-10-8-8-9-6-13-2-11v-4h-10l-14 1-13 4-8 5-7 8-6 12-1-4 7-13 2-1 2-4 16-8 8-2z" fill="#EC3567"/>
<path transform="translate(861,1745)" d="m0 0h1v55l4 15 5 9 5 4 3 6 4 2 2 4 2 1v2l10 5v2l3 1-1 2-12-8-9-9-8-7-4-8-5-12-2-15v-18l1-8z" fill="#EC306C"/>
<path transform="translate(875,1635)" d="m0 0 16 4 2 4-7 8-8 9-2 5-2 2-3 4-5 12-2 7-2 11-1 43h-1l-1-13v-27l3-16 4-12 9-16 9-10 6-7 1-2-11-2-5-2z" fill="#EC306C"/>
<path transform="translate(852,1606)" d="m0 0 5 5 7 8 11 7 12 5 9 2h18l16-4 30-10v2l-14 6-14 4-4 2-7 2-25 1-5-1-14-5-10-5v-2l-5-2v-2l-4-2-6-8-2 1v-3z" fill="#EC3468"/>
<path transform="translate(1244,1686)" d="m0 0v3l-7 6-1 2-5 2-11 8h-2v2l-11 6-5 3h-2v2l-10 4-9 5-21 7-13 3-4 1-4-2 21-5 20-7 19-9 22-14 10-7z" fill="#EC3567"/>
<path transform="translate(1560,873)" d="m0 0 4 1 11 8 8 8 9 12 5 9-3-1-8-12v-2l-3-1v-2h-3v-3h-2l-3-5-8-6-4-2-1 4 10 8 6 6v2h2l9 13 1 5h-2l-6-11-12-13-8-7-4-2z" fill="#EC306B"/>
<path transform="translate(1450,1258)" d="m0 0 1 3-7 10-12 23-11 25-8 16-11 17-2 3h-2l2-5 6-8 3-6 2-1v-3h2l2-6 5-11 5-13 5-10 9-19h2l2-5z" fill="#EC3567"/>
<path transform="translate(1207,1449)" d="m0 0h2l-3 13-2 1 2-9-4 1-7 5-4 1-6 3-1 2-6 2-8 5h-3v2l-4 3h-4l-1 3 10 2 4 2-2 1-20-3v-2l10-6 11-6 23-13z" fill="#EC3864"/>
<path transform="translate(882,1663)" d="m0 0 1 3-5 8-6 14-3 16v64h-2l-1-54 2-23 8-20 4-6z" fill="#EC3964"/>
<path transform="translate(1231,1388)" d="m0 0 4 2 4 8 3 1 4 6 3 2 3 6 7 8 5 10 6 10 2 6 2 1v3l2 1 3 9 2 3v5l-2-1-8-20-11-19-14-20-11-13-5-7z" fill="#EC3368"/>
<path transform="translate(971,1680)" d="m0 0 1 2-11 5-6 3-2 2-4 5-4 4-6 13-3 14v32l-4 1 1-2v-23l2-17 5-15 8-11 10-8 9-4z" fill="#EC3368"/>
<path transform="translate(1204,1771)" d="m0 0 2 2-2 4 6 2 8 4-1 4-10 7h-3l-1 2-6 3h-3v2l-10 4-6 2h-2l-1 2-4 2-4-1 1-2 16-6 16-8 14-8h2l-3-3-17-8v-2z" fill="#EC3565"/>
<path transform="translate(912,1752)" d="m0 0 6 1 10 4v2l-10-3 1 5 8 13v2h2v3l3 1 3 9h2l3 6v3h2l3 5 4-1-2 8-4-5-12-19-12-20-7-11z" fill="#EC3169"/>
<path transform="translate(1276,1552)" d="m0 0h2l-2 6-3 6h-2l-2 4-7 9-7 6-4 4-11 6-10 4-10 1 4-2 16-6 10-6 9-8h2l2-4 7-9zm-60 46 4 1-5 2-10 2h-7l4-2z" fill="#EC3865"/>
<path transform="translate(1327,1642)" d="m0 0 2 1-9 6-28 16-2 3-12 6-14 10-2-2 11-8h2l1-3 6-3 11-8 4-1 4-2 2-2 5-2 9-5z" fill="#EC3169"/>
<path transform="translate(1426,1401)" d="m0 0 2 2-10 15-13 24-14 28-4 10h-2l1-4 9-21 1-3h2l1-6h2l2-6 9-16 4-9 4-4z" fill="#EC3A62"/>
<path transform="translate(1326,1395)" d="m0 0h3v2h-2l-2 6-4 8h-2l-1 5-7 13v2l10-1 12-4h3v2l-29 9-2-1 2-5 13-25z" fill="#EC3367"/>
<path transform="translate(1507,1217)" d="m0 0h17l9 2 12 6 9 10 4 9-3-1-2-6-3-1-1-5h-2l-3-3-1-2-4-1v-2l-13-3h-22l-12 3-3-1 7-3z" fill="#EC3468"/>
<path transform="translate(1055,1809)" d="m0 0v3l-18 5-21 9-25 13h-2v-2l8-4 2-2 5-1v-2l10-4 6-2v-2l13-4 8-3z" fill="#EC3667"/>
<path transform="translate(1371,1516)" d="m0 0 2 2-4 18v5l4 5 4 9 1 5v11l-4 16h-2l2-10 1-8v-9l-2-9-3-5-2-1-2-4v-7z" fill="#EC3D60"/>
<path transform="translate(1045,1738)" d="m0 0 9 2 21 5 21 2h33l-3 2h-40l-20-3-21-6z" fill="#EC3666"/>
<path transform="translate(1158,1621)" d="m0 0 2 1-5 5h-2v3l-5 3-1 3h-2l-1 2-3 3-1 3h-2l-2 4-3 5h-3l-2 5h-4l-4-7v-3h-2l-1-7 3 4 6 11 8-10 9-11 10-10z" fill="#EC3766"/>
<path transform="translate(1483,1323)" d="m0 0v3l-11 7-7 8-8 8-1 3-5 5-7 10-2 4-4 4-3 5h-2l2-4 7-11 13-17 2-3h2l2-4 10-10 10-7z" fill="#EC3765"/>
<path transform="translate(1202,1346)" d="m0 0 7 6 6 7h-3l-4-5-4-3v-2h-3l-1 5 8 6 2 4 7 6 3 5 3 2v2l4 2 4 6-1 2-6-7-8-8v-2h-2l-7-8-2-4-4-2-4-4 1-5z" fill="#EC3666"/>
<path transform="translate(1375,1483)" d="m0 0 1 4-3 10-1 3h-2l-1 6-5 18-2 8-1 2-6-1-14-6 1-2 13 5 5 3 3-16 9-27z" fill="#EC3567"/>
<path transform="translate(1632,1208)" d="m0 0 2 1-1 10-2 4-6 28-7 14-3 4h-2v2l-5 2 1-3 7-6 5-11 9-37z" fill="#EC3765"/>
<path transform="translate(1542,1363)" d="m0 0 4 1v3l2 1 4 6 7 6 3 1h14l1-2 12-9v3l-4 5-12 6h-11l-6-3-4-3v-2h-2l-8-12z" fill="#EC3567"/>
<path transform="translate(1498,1318)" d="m0 0h15l11 4 8 7 4 4v2h-2l-7-8-9-4v-2l-3 1-3-1h-13l-7 2-7 1v-2z" fill="#EC306A"/>
<path transform="translate(1346,1616)" d="m0 0h2l-1 4-4 1v2h-2l-1 3h-2l-1 3-7 6-10 6-4 1-1 2-10 5-3-1 16-9 12-8 12-11z" fill="#EC326A"/>
<path transform="translate(1260,1759)" d="m0 0 2 1-2 4-6-1-19 4-17 4-11 1 1-2z" fill="#EC3567"/>
<path transform="translate(1290,1655)" d="m0 0 2 2-3 1v2l-7 2-1 2-11 7h-2l-1 3-9 5-10 7-2-1 12-9 18-12 9-7z" fill="#EC3963"/>
<path transform="translate(1067,1584)" d="m0 0h2v2l-11 5-16 6-7 2 3 8v18l-2 1v-15l-3-13 12-5 16-6z" fill="#EC3567"/>
<path transform="translate(1496,1325)" d="m0 0h18l6 3 10 9 5 8v2h2l1 5h-2l-9-15-7-6-7-3h-15l-5 1v-2z" fill="#EC3963"/>
<path transform="translate(979,1685)" d="m0 0h8v2l-16 3-12 6-7 7-7 14-1-4 7-13 2-1 2-4 16-8z" fill="#EC3567"/>
<path transform="translate(1443,1255)" d="m0 0 2 1-8 13-4 8h-2l-3 9-5 10-4 10h-2l3-9 12-25 10-16z" fill="#EC3964"/>
<path transform="translate(1323,1529)" d="m0 0 10 1 14 4 9 5 9 8 2 5h2l1 5-3-1-4-7-3-3v-2l-16-8-21-6z" fill="#EC3666"/>
<path transform="translate(1544,1019)" d="m0 0h16l13 4 9 6 5 4 1-5h2l-2 7-6-1-4-5-10-5-7-2-20-1z" fill="#EC3865"/>
<path transform="translate(1545,1238)" d="m0 0h2l7 14 5 11v2h2l2 6h2l5 5 12 6-2 2-12-6-7-7-9-17-7-14z" fill="#EC3C60"/>
<path transform="translate(1642,1166)" d="m0 0h1l1 18-2 20-3 13h-1l1-14 2-14v-21z" fill="#EC3468"/>
<path transform="translate(1028,1624)" d="m0 0h2l-1 6-2 6h-2l-1 4-7 14-2 1v3h-2l-2 10-4 3-1-2 8-16 11-20z" fill="#EC3864"/>
<path transform="translate(1621,1116)" d="m0 0h3l10 17 4 8 4 14 1 9-2 1-4-19-10-21-6-8z" fill="#EC3369"/>
<path transform="translate(1602,1325)" d="m0 0 1 4-5 15-10 19-4 5h-2v2l-4 3-2-1 7-7 9-14 7-17z" fill="#EC3567"/>
<path transform="translate(1346,1406)" d="m0 0 18 7 5 2v2l-21 7-7 2-1-2 10-4 14-3v-2l-10-3-7-3z" fill="#E8336A"/>
<path transform="translate(1218,1605)" d="m0 0h6l-4 2-20 4-17 6-10 5 1-3 9-5 16-5 7-2z" fill="#EC3468"/>
<path transform="translate(1558,881)" d="m0 0 5 1 9 7 6 6v2h2l9 13 1 5h-2l-6-11-12-13-8-7z" fill="#EA346A"/>
<path transform="translate(1220,1791)" d="m0 0 4 1 2 13 1 5 1-3h2l2-5 2 2-8 11-2 1-2-23-5 3-2-1z" fill="#EC316A"/>
<path transform="translate(1380,1363)" d="m0 0 2 1-7 8-4 4-2 4-4 2-5 5-12 11-3 1 2-4 20-18 12-12z" fill="#EC3D5F"/>
<path transform="translate(987,1830)" d="m0 0 1 3-8 4h-2v2l-9 4-12 6-7 2-4-1 10-4 14-6 14-8z" fill="#EC3666"/>
<path transform="translate(1259,1684)" d="m0 0h2l-1 3-6 4-9 7-18 13-2-2 5-3 2-3 7-4h2v-2h2v-2l7-4 4-2 1-3z" fill="#EC3468"/>
<path transform="translate(1030,1721)" d="m0 0 12 7 17 6 12 3 1 2-10-1-18-6-13-7z" fill="#EC316A"/>
<path transform="translate(1231,1388)" d="m0 0 4 2 4 8 3 1 4 6 3 2 3 6 4 6-1 2-7-9-11-14-7-8z" fill="#EC3666"/>
<path transform="translate(1609,1324)" d="m0 0 2 4-7 21-9 16-2-1 2-5 3-4 7-16 2-11h2z" fill="#EC3666"/>
<path transform="translate(1204,1771)" d="m0 0 2 2-2 4 6 2 8 4-1 4-7 5h-2l1-3 5-3h2l-3-3-17-8v-2z" fill="#EC3964"/>
<path transform="translate(1179,1733)" d="m0 0h3l-1 3-17 6-23 5-2-2 29-7 9-2v-2z" fill="#EC2F6D"/>
<path transform="translate(1262,1419)" d="m0 0 4 1 12 20 7 16v2h-2l-7-16-6-9-4-8v-2l-3-1z" fill="#EC3765"/>
<path transform="translate(1607,1279)" d="m0 0 4 1-3 3 4 10 1 9v10l-1 9-2 2v-25l-2-9-3-8z" fill="#EC306B"/>
<path transform="translate(985,1839)" d="m0 0h3v2l-20 11-16 6-2-2 15-6 16-8z" fill="#EC3468"/>
<path transform="translate(1219,1713)" d="m0 0h2v2l-15 9-17 9-4 1v-2l13-7 8-4 5-3z" fill="#EC3666"/>
<path transform="translate(1336,1377)" d="m0 0 2 1 4 21 2 2-3 1-3-3-1-13-2-2-6 10-1-3z" fill="#EB3765"/>
<path transform="translate(1608,977)" d="m0 0 2 3-2 16-5 20h-2l1-9 2-5 1-9 2-9z" fill="#EC3567"/>
<path transform="translate(1244,1686)" d="m0 0v3l-7 6-1 2-5 2-11 8h-2v2l-4 2-3-1 11-8 12-8z" fill="#EC3862"/>
<path transform="translate(1085,1566)" d="m0 0h3v2l-10 5-12 7-11 4h-2v-2l16-7z" fill="#EC3467"/>
<path transform="translate(1e3 1602)" d="m0 0v3l-34 13-5 1v-2l27-10z" fill="#EC3468"/>
<path transform="translate(903,1845)" d="m0 0 9 3 16 3h8l8-1 1 2-4 1h-22l-11-3-5-3z" fill="#EC3666"/>
<path transform="translate(1174,1486)" d="m0 0 1 2-5 5-2 4-5 4-5 6-11 11-2-1 8-8 7-8 10-11z" fill="#EC3D60"/>
<path transform="translate(1160,1475)" d="m0 0h4l-1 3h-4l-1 3 10 2 4 2-2 1-20-3v-2z" fill="#EA3169"/>
<path transform="translate(930,1782)" d="m0 0h2l3 5v2h2l3 6v3h2l3 5 4-1-2 8-4-5-12-19z" fill="#EC3766"/>
<path transform="translate(1256,1766)" d="m0 0 2 1-16 24-7 10v-3l6-10 5-7 1-4 4-4z" fill="#EC3666"/>
<path transform="translate(1193,1603)" d="m0 0 2 2-11 4-6 3-5 2-11 7-2-1 11-8 18-8z" fill="#EC3865"/>
<path transform="translate(852,1606)" d="m0 0 5 5 7 8 11 7 3 3-5-1-6-3v-2l-5-2v-2l-4-2-6-8-2 1v-3z" fill="#EC3765"/>
<path transform="translate(1557,1245)" d="m0 0h2l9 19 7 7 4 2v2l-5-1-5-5-6-9-5-10z" fill="#EC306B"/>
<path transform="translate(1327,1642)" d="m0 0 2 1-9 6-21 12-3 1 1-3 4-2 2-2 5-2 9-5z" fill="#EC3765"/>
<path transform="translate(1368,1558)" d="m0 0h3v17h-2l-1 7-4 9-2-2 5-13 1-4z" fill="#EC3468"/>
<path transform="translate(1112,1813)" d="m0 0 9 1v2l4-1 3 2 5 1 15 1v2h-12l-14-3-10-4z" fill="#EC3C60"/>
<path transform="translate(971,1680)" d="m0 0 1 2-11 5-6 3-2 2-4 5-3 3h-2l2-5 9-8 12-6z" fill="#EC2B71"/>
<path transform="translate(1623,1130)" d="m0 0 3 3 4 8v3h2l3 13 1 2-1 7h-1l-4-17-7-16z" fill="#EC3666"/>
<path transform="translate(1181,1494)" d="m0 0h3l4 12h2l1-5h3l-3 11-2 2-5-11z" fill="#E7306D"/>
<path transform="translate(1600,947)" d="m0 0h2l1 3 1 19-1 19-3-1 1-11v-19z" fill="#EC306C"/>
<path transform="translate(1e3 1672)" d="m0 0h2v6l-2 1-22 2h-10l2-2 6-1 22-1z" fill="#EC3864"/>
<path transform="translate(1207,1449)" d="m0 0h2l-3 13-2 1 2-9-4 1-7 5h-2l1-4z" fill="#E93469"/>
<path transform="translate(1326,1395)" d="m0 0h3v2h-2l-2 6-4 8h-2l-1 5-6 11h-2l2-6 12-22z" fill="#EC3864"/>
<path transform="translate(1534,1220)" d="m0 0 6 2 8 6 7 9 3 7-3-1-2-6-3-1-1-5h-2l-3-3-1-2-4-1v-2l-5-1z" fill="#EC3F5E"/>
<path transform="translate(1022,1602)" d="m0 0h3v2l-31 12-1-2 12-5z" fill="#EC3666"/>
<path transform="translate(1548,1358)" d="m0 0h2l7 11 6 5 5 1 5-1-1 3h-10v-2l-6-2-4-7-4-5z" fill="#EC3765"/>
<path transform="translate(956,1628)" d="m0 0 2 1-9 4-21 7v-3l8-3 9-3h5v-2z" fill="#EC3567"/>
<path transform="translate(1288,1541)" d="m0 0 2 2-6 15-6 11-3-1 2-4h2l1-6 4-6z" fill="#EC3468"/>
<path transform="translate(1144,1518)" d="m0 0 2 1-7 7-7 6-5 5-3 1v2l-5 2 5-6h2v-2l8-7 3-3h2v-2h2v-2z" fill="#EC3567"/>
<path transform="translate(1293,1526)" d="m0 0 26 1 3 2-4 1-9-1h-15l-2 7h-2l1-8z" fill="#EC2F6D"/>
<path transform="translate(1630,1249)" d="m0 0 2 1-4 12-7 11-4 3v-3l5-6 5-9 1-7h2z" fill="#EC326A"/>
<path transform="translate(875,1635)" d="m0 0 16 4 2 4-7 8-4 4-2-1 5-6 5-5 1-2-11-2-5-2z" fill="#EC3A62"/>
<path transform="translate(1604,1087)" d="m0 0 4 4 10 16 4 6-1 2-3-2-2-5-2-2-5-8v-2h-2z" fill="#EC3665"/>
<path transform="translate(1485,1330)" d="m0 0h2v2l-9 6-7 6-4 5h-2l3-6h2l1-3 5-4h2v-2l3-1 1-2z" fill="#EC2B71"/>
<path transform="translate(1055,1809)" d="m0 0v3l-18 5-9 3v-2l9-4z" fill="#EC3964"/>
<path transform="translate(1065,1807)" d="m0 0h31l2 2-3 1-7-1h-14l-10 1-2-2z" fill="#EC326A"/>
<path transform="translate(1432,1380)" d="m0 0h2l-2 5-7 9v2l-4 4-3 5h-2l2-5 12-18h2z" fill="#EC3567"/>
<path transform="translate(877,1834)" d="m0 0 6 2 2 4 2 1v2l10 5v2l3 1-1 2-12-8-10-10z" fill="#EC3B60"/>
<path transform="translate(1051,1583)" d="m0 0 1 2-6 4-9 2-10 4h-2v-2z" fill="#EC3567"/>
<path transform="translate(1292,1488)" d="m0 0 2 3 1 19-1 10h-1l-2-26z" fill="#EC2F6C"/>
<path transform="translate(1426,1401)" d="m0 0 2 2-10 15-5 9-2 1 1-4 4-9 4-4z" fill="#EC3567"/>
<path transform="translate(1598,999)" d="m0 0 1 4-2 7-5 16h-3l6-18z" fill="#EC3468"/>
<path transform="translate(1606,941)" d="m0 0 3 3 1 6v26h-1l-1-17z" fill="#EC316B"/>
<path transform="translate(985,1617)" d="m0 0h2v2l-27 10-1-2 11-5z" fill="#EC3A63"/>
<path transform="translate(1496,1325)" d="m0 0h18l4 2v2l-5-1h-15l-5 1v-2z" fill="#EC326A"/>
<path transform="translate(1483,1323)" d="m0 0v3l-11 7-7 8-5 2 6-7 10-9z" fill="#EC3B62"/>
<path transform="translate(1140,1650)" d="m0 0 1 3-5 6-2 4h9l4 2h-13l-2-1 1-5 1-3 5-5z" fill="#EC316B"/>
<path transform="translate(960,1744)" d="m0 0h2l-1 6-7 2-1 2-7 4-2-1 6-5h2v-2z" fill="#EA3368"/>
<path transform="translate(1583,1283)" d="m0 0h16l3 4 2 5-1 3-5-9-14-1z" fill="#EC3666"/>
<path transform="translate(1443,1255)" d="m0 0 2 1-8 13-4 8-3-1 6-11z" fill="#EC3567"/>
<path transform="translate(1285,1459)" d="m0 0 2 2 5 17 1 7-2 1-3-13-2-5z" fill="#EC3567"/>
<path transform="translate(1383,1371)" d="m0 0 1 2-7 8-3 3h-2l-2 4-5 2 2-4 6-5h2v-2h2l1-4z" fill="#EC2D6E"/>
<path transform="translate(1537,1337)" d="m0 0h2l10 19h-3l-4-6-4-10z" fill="#EC3369"/>
<path transform="translate(1503,1225)" d="m0 0h5l-2 2-15 4-10 4 2-4 16-5z" fill="#EC3567"/>
<path transform="translate(1642,1166)" d="m0 0h1l1 18-1 5h-1l-1-5v-16z" fill="#EC2B71"/>
<path transform="translate(912,1752)" d="m0 0 6 1 10 4v2l-10-3v2l-3 1-3-4z" fill="#EA3366"/>
<path transform="translate(1e3 1684)" d="m0 0 4 1 1 1v10h-1l-1-9h-16v-2z" fill="#EC2C6F"/>
<path transform="translate(1174,1813)" d="m0 0m-3 1 3 1-2 2-12 3-12 1v-2l18-3z" fill="#EC3369"/>
<path transform="translate(852,1618)" d="m0 0 7 6 8 6 5 2v2h2l-1 2-12-7-7-6z" fill="#EC3765"/>
<path transform="translate(1371,1516)" d="m0 0 2 2-5 22h-2l1-10z" fill="#EC306B"/>
<path transform="translate(1622,1251)" d="m0 0 2 1-5 12-4 5h-2v2l-5 2 1-3 7-6z" fill="#EC3764"/>
<path transform="translate(1034,1808)" d="m0 0 2 1-9 4-11 5-6 2v-2l18-8z" fill="#EC3567"/>
<path transform="translate(923,1638)" d="m0 0 3 1-2 2-15 2h-6l-1-2z" fill="#EC2F6D"/>
<path transform="translate(1089,1572)" d="m0 0h2v2l-20 11v-3l9-5h3v-2z" fill="#EC3567"/>
<path transform="translate(1376,1561)" d="m0 0h1l1 10-4 16h-2l2-10z" fill="#EC326A"/>
<path transform="translate(1362,1417)" d="m0 0 4 1-18 6-7 2-1-2 10-4z" fill="#EC3963"/>
<path transform="translate(1202,1346)" d="m0 0 7 6 6 7h-3l-4-5-4-3v-2h-3l-2 5h-2l1-5z" fill="#EF6348"/>
<path transform="translate(1450,1258)" d="m0 0 1 3-7 10-5 8h-2l2-6h2l2-5z" fill="#EC326A"/>
<path transform="translate(843,516)" d="m0 0 1 4-1 3-8 6-2 4-1-4z" fill="#0E5D8F"/>
<path transform="translate(1045,1738)" d="m0 0 9 2 13 3 1 3-17-4-6-2z" fill="#EC3368"/>
<path transform="translate(1158,1621)" d="m0 0 2 1-5 5h-2v3l-5 3-1 3h-2l-1 2-2-2 11-11z" fill="#EC306A"/>
<path transform="translate(1255,1589)" d="m0 0h2v2l-13 8-8 3v-2l13-7h2v-2z" fill="#EC326A"/>
<path transform="translate(1575,1034)" d="m0 0 5 3 7 10 1 9-2-2-4-11-7-7z" fill="#EC326A"/>
<path transform="translate(1206,1791)" d="m0 0h2l-1 3h-3l-1 2-6 3h-3v2l-5 1v-2z" fill="#EC326A"/>
<path transform="translate(1035,1629)" d="m0 0 1 3-9 18-2-1 5-11 4-8z" fill="#EC3A63"/>
<path transform="translate(1516,1320)" d="m0 0 6 1 6 4 8 8v2h-2l-7-8-9-4v-2z" fill="#EC3864"/>
<path transform="translate(304 1e3)" d="m0 0h1l2 8v13l-2-2-2-14z" fill="#992A84"/>
<path transform="translate(869,1805)" d="m0 0 2 3 4 9 3 4v2l-3-1-2-5h-2l-3-6z" fill="#EC3567"/>
<path transform="translate(1014,1653)" d="m0 0 3 1-2 1v3h-2l-2 10-4 3-1-2z" fill="#EC3168"/>
<path transform="translate(1293,1660)" d="m0 0 3 1v2l-4 2-2 3-7 3 2-5z" fill="#CB2A77"/>
<path transform="translate(1354,1617)" d="m0 0 2 2-14 15-2-2 5-5 3-4h2l1-3h2z" fill="#EC2E6E"/>
<path transform="translate(870,1824)" d="m0 0 6 4 2 3-1 4-7-6-1-4z" fill="#CD2A78"/>
<path transform="translate(342,632)" d="m0 0h3l-2 6h-4-6v-2z" fill="#B72A7D"/>
<path transform="translate(1210,1710)" d="m0 0 2 2-10 6h-2v2l-5 2-3-1z" fill="#EC3369"/>
<path transform="translate(1274,1437)" d="m0 0h2l7 14 2 7h-2l-7-16z" fill="#EC3468"/>
<path transform="translate(1524,1225)" d="m0 0 7 1 10 5 4 6-4-2-5-4-6-3-6-2z" fill="#EC3468"/>
<path transform="translate(967,1849)" d="m0 0h2l-1 3-16 6-2-2 15-6z" fill="#EC3666"/>
<path transform="translate(1594,926)" d="m0 0 3 1 5 17-2 2z" fill="#EC316A"/>
<path transform="translate(339,673)" d="m0 0h2l5 8v2l-9-3v-2h3z" fill="#B72A7D"/>
<path transform="translate(1144,1671)" d="m0 0 3 1-11 8-7 4v-3l12-7 3-1z" fill="#EC3567"/>
<path transform="translate(1276,1552)" d="m0 0h2l-2 6-3 6h-2l-2 4-2 3-2-1 9-14z" fill="#EC3F5E"/>
<path transform="translate(333,879)" d="m0 0 4 1-8 4-9 7v-3l7-6z" fill="#AC2A80"/>
<path transform="translate(839,81)" d="m0 0 2 1 3 12v7h-2l-4-19z" fill="#0E5892"/>
<path transform="translate(987,1830)" d="m0 0 1 3-8 4h-2v2l-7 1 5-4z" fill="#EC3369"/>
<path transform="translate(1199,1724)" d="m0 0 4 1-10 6-8 3v-2l13-7z" fill="#EC326A"/>
<path transform="translate(1e3 1696)" d="m0 0h2l3 9 5 10-1 2-5-8-4-11z" fill="#EC3964"/>
<path transform="translate(1290,1655)" d="m0 0 2 2-3 1v2l-7 2-1 2-2-2 7-6z" fill="#E42C71"/>
<path transform="translate(1367,1595)" d="m0 0 3 1-7 13-4 1 1-3h2l2-5z" fill="#EC3369"/>
<path transform="translate(539,1095)" d="m0 0 5 2 1 3h-18v-1l12-1z" fill="#AF2A7F"/>
<path transform="translate(1583,894)" d="m0 0 4 1 10 15h-3l-8-12v-2l-3-1z" fill="#EC3765"/>
<path transform="translate(1578,897)" d="m0 0h2l9 13 1 5h-2l-6-11-4-5z" fill="#EC3A62"/>
<path transform="translate(1232,1802)" d="m0 0 2 2-8 11-2 1v-7l3 1 1-3h2z" fill="#E93469"/>
<path transform="translate(882,1663)" d="m0 0 1 3-5 8-4 7-1-3 4-8 3-5z" fill="#EC3963"/>
<path transform="translate(1346,1616)" d="m0 0h2l-1 4-4 1v2h-2l-1 3h-2l-1 3-3-1z" fill="#EC3963"/>
<path transform="translate(1341,1525)" d="m0 0 9 3 8 4h3v2l-6-1-14-6z" fill="#EC3B62"/>
<path transform="translate(1409,1337)" d="m0 0 1 3-10 15h-2l2-5 6-8z" fill="#EC3765"/>
<path transform="translate(1607,1279)" d="m0 0 4 1-3 3 4 10v3h-2l-5-15z" fill="#EC326A"/>
<path transform="translate(1204,1771)" d="m0 0 2 2-2 5-6-2-2-1v-2z" fill="#E63469"/>
<path transform="translate(1179,1733)" d="m0 0h3l-1 3-14 5h-2v-2l9-3h3v-2z" fill="#EC3666"/>
<path transform="translate(1274,1451)" d="m0 0 2 1 3 9 2 3v5l-2-1-6-16z" fill="#EC306B"/>
<path transform="translate(1600,1017)" d="m0 0 2 2-6 15-2 1 1-7h2l-1-3 1-2h2z" fill="#EC3468"/>
<path transform="translate(1102,1692)" d="m0 0 1 3 4 2v2l-5 3h-2l1-9z" fill="#E92E6D"/>
<path transform="translate(1396,1356)" d="m0 0 1 3-8 9-2-1 4-7h2v-2z" fill="#EC306B"/>
<path transform="translate(1557,1245)" d="m0 0h2l7 15v2h-2l-6-12z" fill="#EC3666"/>
<path transform="translate(1560,873)" d="m0 0 4 1 4 4-5-1-2 4-3-1z" fill="#D23071"/>
<path transform="translate(1117,1641)" d="m0 0 3 4 6 13-3-1-3-6v-3h-2z" fill="#EC3A62"/>
<path transform="translate(1361,1592)" d="m0 0h2l-3 9-5 6-2-1z" fill="#EC3666"/>
<path transform="translate(370,642)" d="m0 0h20v1l-16 1-8 1v-2z" fill="#A22A82"/>
<path transform="translate(1017,1709)" d="m0 0 3 1 4 5v2l4 2v3l-4-2v-2h-2l-3-5z" fill="#EC3369"/>
<path transform="translate(959,1619)" d="m0 0 1 2-14 6-2-1 4-3z" fill="#EC3567"/>
<path transform="translate(852,1606)" d="m0 0 5 5 6 8-4-1-7-9-2 1v-3z" fill="#ED435A"/>
<path transform="translate(1601,1349)" d="m0 0 2 2-8 14-2-1 2-5 3-4z" fill="#EC3369"/>
<path transform="translate(1502,1318)" d="m0 0h11l4 2-2 2-3-1-11-1z" fill="#EC3369"/>
<path transform="translate(901,1852)" d="m0 0 8 2 9 3-1 2-11-3-5-2z" fill="#EC3369"/>
<path transform="translate(971,1680)" d="m0 0 1 2-11 5-2 1-2-2 10-5z" fill="#EC3765"/>
<path transform="translate(1392,1349)" d="m0 0h2l-2 4-7 9h-2l-1 2v-3l9-10z" fill="#EC3369"/>
<path transform="translate(1567,1275)" d="m0 0 4 2 11 5-2 2-12-6z" fill="#EC2F6D"/>
<path transform="translate(1545,1238)" d="m0 0h2l7 14-2 2-7-14z" fill="#EC3567"/>
<path transform="translate(1462,1236)" d="m0 0 2 1-5 5-8 7-2-1 10-10z" fill="#EC3D5F"/>
<path transform="translate(1549,1230)" d="m0 0 5 5 4 9-3-1-2-6-3-1z" fill="#EC316B"/>
<path transform="translate(1478,1226)" d="m0 0v3l-2 2h-3l-1 2-7 2 4-4z" fill="#EC3662"/>
<path transform="translate(1e3 1672)" d="m0 0h2v6l-2 1-16 1 1-2 13-1z" fill="#EC2F6D"/>
<path transform="translate(1151,1664)" d="m0 0 6 1-3 3-5 3-1-4z" fill="#E52C6F"/>
<path transform="translate(1221,1377)" d="m0 0h2v2l4 2 4 6-1 2-6-7-3-3z" fill="#EC3A63"/>
<path transform="translate(1158,1631)" d="m0 0v3l-10 10-1-3 5-4 1-2h2v-2z" fill="#EC3368"/>
<path transform="translate(1110,1556)" d="m0 0h3l-1 3-8 6-3 1 2-4 4-1 1-3h2z" fill="#EC3368"/>
<path transform="translate(1461,1503)" d="m0 0 2 1-7 8-4 3-2-1z" fill="#09867D"/>
<path transform="translate(1452,1364)" d="m0 0 1 3-8 10-2-2 4-5h2l1-4h2z" fill="#EC3666"/>
<path transform="translate(735,1365)" d="m0 0 1 3-3 8h-2l-1-7 3 1z" fill="#B32A7E"/>
<path transform="translate(1586,1361)" d="m0 0h2l-2 4-2 3h-2v2l-4 3-2-1 7-7z" fill="#EC3864"/>
<path transform="translate(1634,1232)" d="m0 0h2l-4 16h-1v-7z" fill="#EC316A"/>
<path transform="translate(1626,1236)" d="m0 0h1l-1 9-1 6h-3l3-14z" fill="#EC3368"/>
<path transform="translate(1530,1022)" d="m0 0 2 1-1 2-7 3-5 1v-2z" fill="#EC2E6B"/>
<path transform="translate(1302,1709)" d="m0 0 3 1 7 8 3 2-1 2-8-7-4-4z" fill="#06828F"/>
<path transform="translate(920,1632)" d="m0 0 2 2-1 1-17 1v-2z" fill="#EC2D6E"/>
<path transform="translate(1098,1557)" d="m0 0 3 1-3 1-1 3-6 3-3 2v-3z" fill="#EC395F"/>
<path transform="translate(1588,1370)" d="m0 0 2 2-5 6-5 2 3-5z" fill="#D32A76"/>
<path transform="translate(1608,977)" d="m0 0 2 3-1 10-2 1v-12z" fill="#EC2D6E"/>
<path transform="translate(1027,1818)" d="m0 0v3l-9 4-2-1 4-2v-2z" fill="#EC2F6C"/>
<path transform="translate(864,1686)" d="m0 0 1 3-2 5-1 7h-2l1-10z" fill="#EC3B61"/>
<path transform="translate(1259,1684)" d="m0 0h2l-1 3-6 4-4 2 2-4h2l1-3z" fill="#EC3766"/>
<path transform="translate(1314,1641)" d="m0 0 2 1-1 2-10 5-3-1z" fill="#EC3963"/>
<path transform="translate(1169,1622)" d="m0 0h2v2l-8 6-3-1 5-5z" fill="#EC2D6E"/>
<path transform="translate(1264,1571)" d="m0 0 2 1-7 8-4 1 4-5h2l2-4z" fill="#EC2F6C"/>
<path transform="translate(1201,1452)" d="m0 0 2 2-8 6h-2l1-4z" fill="#EC326A"/>
<path transform="translate(1254,1406)" d="m0 0h2l7 10v2l-3-1-4-7-2-1z" fill="#EC2F6C"/>
<path transform="translate(1231,1388)" d="m0 0 4 2 2 4 2 2-1 3-8-9z" fill="#EC3168"/>
<path transform="translate(1535,1028)" d="m0 0 4 1-12 5-3 1 2-4z" fill="#EC326A"/>
<path transform="translate(286,656)" d="m0 0 3 1 4 3 2 2-7-1-4-2v-2z" fill="#B22A7E"/>
<path transform="translate(1030,1721)" d="m0 0 14 8-3 1-10-5z" fill="#EC3A63"/>
<path transform="translate(1179,1490)" d="m0 0 3 1v2l-5 3-3 4h-2l2-4z" fill="#EC2D6E"/>
<path transform="translate(1309,1427)" d="m0 0h2v5l-5 5-1-3z" fill="#E82C6E"/>
<path transform="translate(1485,1330)" d="m0 0h2v2l-10 6-1-2h2v-2l3-1 1-2z" fill="#EC326A"/>
<path transform="translate(1475,1236)" d="m0 0 2 1-10 7-1-2 4-4z" fill="#EC3567"/>
<path transform="translate(1642,1189)" d="m0 0h1l-1 13h-2v-7z" fill="#EC326A"/>
</svg>
